<?xml version="1.0" encoding="UTF-8" standalone="no"?>
<!DOCTYPE svg PUBLIC "-//W3C//DTD SVG 1.1//EN"
 "http://www.w3.org/Graphics/SVG/1.1/DTD/svg11.dtd">
<!-- Generated by graphviz version 12.1.0 (20240811.2233)
 -->
<!-- Title: structs Pages: 1 -->
<svg width="438pt" height="853pt"
 viewBox="0.00 0.00 438.38 853.00" xmlns="http://www.w3.org/2000/svg" xmlns:xlink="http://www.w3.org/1999/xlink">
<g id="graph0" class="graph" transform="scale(1 1) rotate(0) translate(4 849)">
<title>structs</title>
<polygon fill="white" stroke="none" points="-4,4 -4,-849 434.38,-849 434.38,4 -4,4"/>
<!-- 11 -->
<g id="node1" class="node">
<title>11</title>
<path fill="none" stroke="black" d="M244.5,-0.5C244.5,-0.5 371,-0.5 371,-0.5 377,-0.5 383,-6.5 383,-12.5 383,-12.5 383,-37.5 383,-37.5 383,-43.5 377,-49.5 371,-49.5 371,-49.5 244.5,-49.5 244.5,-49.5 238.5,-49.5 232.5,-43.5 232.5,-37.5 232.5,-37.5 232.5,-12.5 232.5,-12.5 232.5,-6.5 238.5,-0.5 244.5,-0.5"/>
<text text-anchor="middle" x="270.12" y="-19.95" font-family="Times,serif" font-size="14.00">errorString</text>
<polyline fill="none" stroke="black" points="307.75,-0.5 307.75,-49.5"/>
<text text-anchor="middle" x="345.38" y="-32.2" font-family="Times,serif" font-size="14.00">s</text>
<polyline fill="none" stroke="black" points="307.75,-25 383,-25"/>
<text text-anchor="middle" x="345.38" y="-7.7" font-family="Times,serif" font-size="14.00">&quot;no name&quot;</text>
</g>
<!-- 12 -->
<g id="node2" class="node">
<title>12</title>
<path fill="none" stroke="black" d="M56.12,-86.5C56.12,-86.5 149.38,-86.5 149.38,-86.5 155.38,-86.5 161.38,-92.5 161.38,-98.5 161.38,-98.5 161.38,-110.5 161.38,-110.5 161.38,-116.5 155.38,-122.5 149.38,-122.5 149.38,-122.5 56.12,-122.5 56.12,-122.5 50.12,-122.5 44.12,-116.5 44.12,-110.5 44.12,-110.5 44.12,-98.5 44.12,-98.5 44.12,-92.5 50.12,-86.5 56.12,-86.5"/>
<text text-anchor="middle" x="102.75" y="-99.45" font-family="Times,serif" font-size="14.00">*errors.errorString</text>
</g>
<!-- 12&#45;&gt;11 -->
<g id="edge1" class="edge">
<title>12:name&#45;&gt;11:name</title>
<path fill="none" stroke="black" d="M119.07,-86.06C139.89,-64.5 178.27,-31.07 220.19,-25.73"/>
<polygon fill="black" stroke="black" points="220.24,-29.23 229.99,-25.1 219.78,-22.25 220.24,-29.23"/>
</g>
<!-- 9 -->
<g id="node3" class="node">
<title>9</title>
<path fill="none" stroke="black" d="M16.88,-159.5C16.88,-159.5 94.62,-159.5 94.62,-159.5 100.62,-159.5 106.62,-165.5 106.62,-171.5 106.62,-171.5 106.62,-196.5 106.62,-196.5 106.62,-202.5 100.62,-208.5 94.62,-208.5 94.62,-208.5 16.87,-208.5 16.87,-208.5 10.88,-208.5 4.88,-202.5 4.88,-196.5 4.88,-196.5 4.88,-171.5 4.88,-171.5 4.88,-165.5 10.88,-159.5 16.88,-159.5"/>
<text text-anchor="middle" x="37.62" y="-178.95" font-family="Times,serif" font-size="14.00">joinError</text>
<polyline fill="none" stroke="black" points="70.38,-159.5 70.38,-208.5"/>
<text text-anchor="middle" x="88.5" y="-191.2" font-family="Times,serif" font-size="14.00">errs</text>
<polyline fill="none" stroke="black" points="70.38,-184 106.62,-184"/>
<text text-anchor="middle" x="88.25" y="-166.7" font-family="Times,serif" font-size="14.00">0</text>
</g>
<!-- 9&#45;&gt;12 -->
<g id="edge2" class="edge">
<title>9:10index0&#45;&gt;12:name</title>
<path fill="none" stroke="black" d="M88.25,-159C88.25,-150.61 89.87,-141.74 92.03,-133.64"/>
<polygon fill="black" stroke="black" points="95.31,-134.88 94.89,-124.29 88.62,-132.83 95.31,-134.88"/>
</g>
<!-- 13 -->
<g id="node4" class="node">
<title>13</title>
<path fill="none" stroke="black" d="M12,-245.5C12,-245.5 95.5,-245.5 95.5,-245.5 101.5,-245.5 107.5,-251.5 107.5,-257.5 107.5,-257.5 107.5,-269.5 107.5,-269.5 107.5,-275.5 101.5,-281.5 95.5,-281.5 95.5,-281.5 12,-281.5 12,-281.5 6,-281.5 0,-275.5 0,-269.5 0,-269.5 0,-257.5 0,-257.5 0,-251.5 6,-245.5 12,-245.5"/>
<text text-anchor="middle" x="53.75" y="-258.45" font-family="Times,serif" font-size="14.00">*errors.joinError</text>
</g>
<!-- 13&#45;&gt;9 -->
<g id="edge3" class="edge">
<title>13:name&#45;&gt;9:name</title>
<path fill="none" stroke="black" d="M45.5,-245.23C42.71,-237.92 39.95,-229.12 38.56,-220.22"/>
<polygon fill="black" stroke="black" points="42.07,-220.18 37.75,-210.51 35.09,-220.76 42.07,-220.18"/>
</g>
<!-- 14 -->
<g id="node5" class="node">
<title>14</title>
<path fill="none" stroke="black" d="M137.12,-166C137.12,-166 230.38,-166 230.38,-166 236.38,-166 242.38,-172 242.38,-178 242.38,-178 242.38,-190 242.38,-190 242.38,-196 236.38,-202 230.38,-202 230.38,-202 137.12,-202 137.12,-202 131.12,-202 125.12,-196 125.12,-190 125.12,-190 125.12,-178 125.12,-178 125.12,-172 131.12,-166 137.12,-166"/>
<text text-anchor="middle" x="183.75" y="-178.95" font-family="Times,serif" font-size="14.00">*errors.errorString</text>
</g>
<!-- 14&#45;&gt;11 -->
<g id="edge4" class="edge">
<title>14:name&#45;&gt;11:name</title>
<path fill="none" stroke="black" d="M199.19,-165.68C220.93,-139.23 258.93,-90.31 268.1,-61.16"/>
<polygon fill="black" stroke="black" points="271.51,-61.95 269.85,-51.49 264.62,-60.7 271.51,-61.95"/>
</g>
<!-- 7 -->
<g id="node6" class="node">
<title>7</title>
<path fill="none" stroke="black" d="M46.25,-318.5C46.25,-318.5 133.25,-318.5 133.25,-318.5 139.25,-318.5 145.25,-324.5 145.25,-330.5 145.25,-330.5 145.25,-355.5 145.25,-355.5 145.25,-361.5 139.25,-367.5 133.25,-367.5 133.25,-367.5 46.25,-367.5 46.25,-367.5 40.25,-367.5 34.25,-361.5 34.25,-355.5 34.25,-355.5 34.25,-330.5 34.25,-330.5 34.25,-324.5 40.25,-318.5 46.25,-318.5"/>
<text text-anchor="middle" x="67" y="-337.95" font-family="Times,serif" font-size="14.00">joinError</text>
<polyline fill="none" stroke="black" points="99.75,-318.5 99.75,-367.5"/>
<text text-anchor="middle" x="122.5" y="-350.2" font-family="Times,serif" font-size="14.00">errs</text>
<polyline fill="none" stroke="black" points="99.75,-343 145.25,-343"/>
<text text-anchor="middle" x="111.12" y="-325.7" font-family="Times,serif" font-size="14.00">0</text>
<polyline fill="none" stroke="black" points="122.5,-318.5 122.5,-343"/>
<text text-anchor="middle" x="133.88" y="-325.7" font-family="Times,serif" font-size="14.00">1</text>
</g>
<!-- 7&#45;&gt;13 -->
<g id="edge5" class="edge">
<title>7:8index0&#45;&gt;13:name</title>
<path fill="none" stroke="black" d="M111.12,-318C111.12,-306.77 105.27,-297.15 97.31,-289.27"/>
<polygon fill="black" stroke="black" points="99.8,-286.79 89.93,-282.94 95.25,-292.11 99.8,-286.79"/>
</g>
<!-- 7&#45;&gt;14 -->
<g id="edge6" class="edge">
<title>7:8index1&#45;&gt;14:name</title>
<path fill="none" stroke="black" d="M133.88,-318C133.88,-279.43 152.25,-238.32 166.69,-211.96"/>
<polygon fill="black" stroke="black" points="169.54,-214.02 171.44,-203.6 163.46,-210.57 169.54,-214.02"/>
</g>
<!-- 15 -->
<g id="node7" class="node">
<title>15</title>
<path fill="none" stroke="black" d="M50,-404.5C50,-404.5 133.5,-404.5 133.5,-404.5 139.5,-404.5 145.5,-410.5 145.5,-416.5 145.5,-416.5 145.5,-428.5 145.5,-428.5 145.5,-434.5 139.5,-440.5 133.5,-440.5 133.5,-440.5 50,-440.5 50,-440.5 44,-440.5 38,-434.5 38,-428.5 38,-428.5 38,-416.5 38,-416.5 38,-410.5 44,-404.5 50,-404.5"/>
<text text-anchor="middle" x="91.75" y="-417.45" font-family="Times,serif" font-size="14.00">*errors.joinError</text>
</g>
<!-- 15&#45;&gt;7 -->
<g id="edge7" class="edge">
<title>15:name&#45;&gt;7:name</title>
<path fill="none" stroke="black" d="M78.8,-404.25C74.54,-397.02 70.37,-388.26 68.32,-379.17"/>
<polygon fill="black" stroke="black" points="71.83,-379.02 67.18,-369.5 64.88,-379.84 71.83,-379.02"/>
</g>
<!-- 16 -->
<g id="node8" class="node">
<title>16</title>
<path fill="none" stroke="black" d="M175.12,-325C175.12,-325 268.38,-325 268.38,-325 274.38,-325 280.38,-331 280.38,-337 280.38,-337 280.38,-349 280.38,-349 280.38,-355 274.38,-361 268.38,-361 268.38,-361 175.12,-361 175.12,-361 169.12,-361 163.12,-355 163.12,-349 163.12,-349 163.12,-337 163.12,-337 163.12,-331 169.12,-325 175.12,-325"/>
<text text-anchor="middle" x="221.75" y="-337.95" font-family="Times,serif" font-size="14.00">*errors.errorString</text>
</g>
<!-- 16&#45;&gt;11 -->
<g id="edge8" class="edge">
<title>16:name&#45;&gt;11:name</title>
<path fill="none" stroke="black" d="M226.93,-324.66C238.96,-280.44 267.93,-164.01 270.01,-61.47"/>
<polygon fill="black" stroke="black" points="273.51,-61.55 270.11,-51.51 266.51,-61.48 273.51,-61.55"/>
</g>
<!-- 5 -->
<g id="node9" class="node">
<title>5</title>
<path fill="none" stroke="black" d="M109.25,-477.5C109.25,-477.5 196.25,-477.5 196.25,-477.5 202.25,-477.5 208.25,-483.5 208.25,-489.5 208.25,-489.5 208.25,-514.5 208.25,-514.5 208.25,-520.5 202.25,-526.5 196.25,-526.5 196.25,-526.5 109.25,-526.5 109.25,-526.5 103.25,-526.5 97.25,-520.5 97.25,-514.5 97.25,-514.5 97.25,-489.5 97.25,-489.5 97.25,-483.5 103.25,-477.5 109.25,-477.5"/>
<text text-anchor="middle" x="130" y="-496.95" font-family="Times,serif" font-size="14.00">joinError</text>
<polyline fill="none" stroke="black" points="162.75,-477.5 162.75,-526.5"/>
<text text-anchor="middle" x="185.5" y="-509.2" font-family="Times,serif" font-size="14.00">errs</text>
<polyline fill="none" stroke="black" points="162.75,-502 208.25,-502"/>
<text text-anchor="middle" x="174.12" y="-484.7" font-family="Times,serif" font-size="14.00">0</text>
<polyline fill="none" stroke="black" points="185.5,-477.5 185.5,-502"/>
<text text-anchor="middle" x="196.88" y="-484.7" font-family="Times,serif" font-size="14.00">1</text>
</g>
<!-- 5&#45;&gt;15 -->
<g id="edge9" class="edge">
<title>5:6index0&#45;&gt;15:name</title>
<path fill="none" stroke="black" d="M174.12,-477C174.12,-467.52 158.77,-456.07 141.32,-446.11"/>
<polygon fill="black" stroke="black" points="143.27,-443.19 132.82,-441.48 139.92,-449.34 143.27,-443.19"/>
</g>
<!-- 5&#45;&gt;16 -->
<g id="edge10" class="edge">
<title>5:6index1&#45;&gt;16:name</title>
<path fill="none" stroke="black" d="M196.88,-477C196.88,-440.52 205.9,-399.37 213.08,-372.42"/>
<polygon fill="black" stroke="black" points="216.42,-373.47 215.7,-362.9 209.67,-371.61 216.42,-373.47"/>
</g>
<!-- 17 -->
<g id="node10" class="node">
<title>17</title>
<path fill="none" stroke="black" d="M125,-563.5C125,-563.5 208.5,-563.5 208.5,-563.5 214.5,-563.5 220.5,-569.5 220.5,-575.5 220.5,-575.5 220.5,-587.5 220.5,-587.5 220.5,-593.5 214.5,-599.5 208.5,-599.5 208.5,-599.5 125,-599.5 125,-599.5 119,-599.5 113,-593.5 113,-587.5 113,-587.5 113,-575.5 113,-575.5 113,-569.5 119,-563.5 125,-563.5"/>
<text text-anchor="middle" x="166.75" y="-576.45" font-family="Times,serif" font-size="14.00">*errors.joinError</text>
</g>
<!-- 17&#45;&gt;5 -->
<g id="edge11" class="edge">
<title>17:name&#45;&gt;5:name</title>
<path fill="none" stroke="black" d="M146.65,-563.29C140.49,-556.27 134.58,-547.67 131.75,-538.3"/>
<polygon fill="black" stroke="black" points="135.22,-537.84 130.23,-528.5 128.3,-538.91 135.22,-537.84"/>
</g>
<!-- 18 -->
<g id="node11" class="node">
<title>18</title>
<path fill="none" stroke="black" d="M238.12,-484C238.12,-484 331.38,-484 331.38,-484 337.38,-484 343.38,-490 343.38,-496 343.38,-496 343.38,-508 343.38,-508 343.38,-514 337.38,-520 331.38,-520 331.38,-520 238.12,-520 238.12,-520 232.12,-520 226.12,-514 226.12,-508 226.12,-508 226.12,-496 226.12,-496 226.12,-490 232.12,-484 238.12,-484"/>
<text text-anchor="middle" x="284.75" y="-496.95" font-family="Times,serif" font-size="14.00">*errors.errorString</text>
</g>
<!-- 18&#45;&gt;11 -->
<g id="edge12" class="edge">
<title>18:name&#45;&gt;11:name</title>
<path fill="none" stroke="black" d="M289.38,-483.65C296.35,-454.34 308.75,-395.05 308.75,-344 308.75,-344 308.75,-344 308.75,-183 308.75,-138.25 294.63,-128.86 281.75,-86 278.23,-74.3 273.69,-69.47 271.47,-61.26"/>
<polygon fill="black" stroke="black" points="274.96,-61.02 270.3,-51.5 268.01,-61.85 274.96,-61.02"/>
</g>
<!-- 3 -->
<g id="node12" class="node">
<title>3</title>
<path fill="none" stroke="black" d="M196.25,-636.5C196.25,-636.5 283.25,-636.5 283.25,-636.5 289.25,-636.5 295.25,-642.5 295.25,-648.5 295.25,-648.5 295.25,-673.5 295.25,-673.5 295.25,-679.5 289.25,-685.5 283.25,-685.5 283.25,-685.5 196.25,-685.5 196.25,-685.5 190.25,-685.5 184.25,-679.5 184.25,-673.5 184.25,-673.5 184.25,-648.5 184.25,-648.5 184.25,-642.5 190.25,-636.5 196.25,-636.5"/>
<text text-anchor="middle" x="217" y="-655.95" font-family="Times,serif" font-size="14.00">joinError</text>
<polyline fill="none" stroke="black" points="249.75,-636.5 249.75,-685.5"/>
<text text-anchor="middle" x="272.5" y="-668.2" font-family="Times,serif" font-size="14.00">errs</text>
<polyline fill="none" stroke="black" points="249.75,-661 295.25,-661"/>
<text text-anchor="middle" x="261.12" y="-643.7" font-family="Times,serif" font-size="14.00">0</text>
<polyline fill="none" stroke="black" points="272.5,-636.5 272.5,-661"/>
<text text-anchor="middle" x="283.88" y="-643.7" font-family="Times,serif" font-size="14.00">1</text>
</g>
<!-- 3&#45;&gt;17 -->
<g id="edge13" class="edge">
<title>3:4index0&#45;&gt;17:name</title>
<path fill="none" stroke="black" d="M261.12,-636C261.12,-625.77 244.28,-614.46 224.83,-604.8"/>
<polygon fill="black" stroke="black" points="226.4,-601.67 215.86,-600.56 223.41,-608 226.4,-601.67"/>
</g>
<!-- 3&#45;&gt;18 -->
<g id="edge14" class="edge">
<title>3:4index1&#45;&gt;18:name</title>
<path fill="none" stroke="black" d="M283.88,-636C283.88,-600.09 284.19,-558.77 284.45,-531.61"/>
<polygon fill="black" stroke="black" points="287.94,-531.75 284.54,-521.72 280.94,-531.69 287.94,-531.75"/>
</g>
<!-- 19 -->
<g id="node13" class="node">
<title>19</title>
<path fill="none" stroke="black" d="M194,-722.5C194,-722.5 277.5,-722.5 277.5,-722.5 283.5,-722.5 289.5,-728.5 289.5,-734.5 289.5,-734.5 289.5,-746.5 289.5,-746.5 289.5,-752.5 283.5,-758.5 277.5,-758.5 277.5,-758.5 194,-758.5 194,-758.5 188,-758.5 182,-752.5 182,-746.5 182,-746.5 182,-734.5 182,-734.5 182,-728.5 188,-722.5 194,-722.5"/>
<text text-anchor="middle" x="235.75" y="-735.45" font-family="Times,serif" font-size="14.00">*errors.joinError</text>
</g>
<!-- 19&#45;&gt;3 -->
<g id="edge15" class="edge">
<title>19:name&#45;&gt;3:name</title>
<path fill="none" stroke="black" d="M226.16,-722.36C222.91,-715.08 219.7,-706.3 218.08,-697.34"/>
<polygon fill="black" stroke="black" points="221.58,-697.13 217.14,-687.51 214.61,-697.79 221.58,-697.13"/>
</g>
<!-- 20 -->
<g id="node14" class="node">
<title>20</title>
<path fill="none" stroke="black" d="M325.12,-643C325.12,-643 418.38,-643 418.38,-643 424.38,-643 430.38,-649 430.38,-655 430.38,-655 430.38,-667 430.38,-667 430.38,-673 424.38,-679 418.38,-679 418.38,-679 325.12,-679 325.12,-679 319.12,-679 313.12,-673 313.12,-667 313.12,-667 313.12,-655 313.12,-655 313.12,-649 319.12,-643 325.12,-643"/>
<text text-anchor="middle" x="371.75" y="-655.95" font-family="Times,serif" font-size="14.00">*errors.errorString</text>
</g>
<!-- 20&#45;&gt;11 -->
<g id="edge16" class="edge">
<title>20:name&#45;&gt;11:name</title>
<path fill="none" stroke="black" d="M371.75,-642.51C371.75,-613.01 371.75,-553.47 371.75,-503 371.75,-503 371.75,-503 371.75,-183 371.75,-130.09 335.9,-127.23 302.75,-86 292.18,-72.85 278.21,-71.46 272.61,-61.18"/>
<polygon fill="black" stroke="black" points="276.04,-60.48 270.45,-51.48 269.21,-62 276.04,-60.48"/>
</g>
<!-- 1 -->
<g id="node15" class="node">
<title>1</title>
<path fill="none" stroke="black" d="M200.25,-795.5C200.25,-795.5 287.25,-795.5 287.25,-795.5 293.25,-795.5 299.25,-801.5 299.25,-807.5 299.25,-807.5 299.25,-832.5 299.25,-832.5 299.25,-838.5 293.25,-844.5 287.25,-844.5 287.25,-844.5 200.25,-844.5 200.25,-844.5 194.25,-844.5 188.25,-838.5 188.25,-832.5 188.25,-832.5 188.25,-807.5 188.25,-807.5 188.25,-801.5 194.25,-795.5 200.25,-795.5"/>
<text text-anchor="middle" x="221" y="-814.95" font-family="Times,serif" font-size="14.00">joinError</text>
<polyline fill="none" stroke="black" points="253.75,-795.5 253.75,-844.5"/>
<text text-anchor="middle" x="276.5" y="-827.2" font-family="Times,serif" font-size="14.00">errs</text>
<polyline fill="none" stroke="black" points="253.75,-820 299.25,-820"/>
<text text-anchor="middle" x="265.12" y="-802.7" font-family="Times,serif" font-size="14.00">0</text>
<polyline fill="none" stroke="black" points="276.5,-795.5 276.5,-820"/>
<text text-anchor="middle" x="287.88" y="-802.7" font-family="Times,serif" font-size="14.00">1</text>
</g>
<!-- 1&#45;&gt;19 -->
<g id="edge17" class="edge">
<title>1:2index0&#45;&gt;19:name</title>
<path fill="none" stroke="black" d="M265.12,-795C265.12,-785.78 261.83,-776.62 257.44,-768.51"/>
<polygon fill="black" stroke="black" points="260.51,-766.83 252.27,-760.17 254.56,-770.52 260.51,-766.83"/>
</g>
<!-- 1&#45;&gt;20 -->
<g id="edge18" class="edge">
<title>1:2index1&#45;&gt;20:name</title>
<path fill="none" stroke="black" d="M287.88,-795C287.88,-771.64 324.95,-720.11 349.8,-688.2"/>
<polygon fill="black" stroke="black" points="352.38,-690.58 355.82,-680.55 346.88,-686.24 352.38,-690.58"/>
</g>
</g>
</svg>
