<?xml version="1.0" encoding="UTF-8" standalone="no"?>
<!DOCTYPE svg PUBLIC "-//W3C//DTD SVG 1.1//EN"
 "http://www.w3.org/Graphics/SVG/1.1/DTD/svg11.dtd">
<!-- Generated by graphviz version 12.1.0 (20240811.2233)
 -->
<!-- Title: structs Pages: 1 -->
<svg width="665pt" height="277pt"
 viewBox="0.00 0.00 665.25 277.00" xmlns="http://www.w3.org/2000/svg" xmlns:xlink="http://www.w3.org/1999/xlink">
<g id="graph0" class="graph" transform="scale(1 1) rotate(0) translate(4 273)">
<title>structs</title>
<polygon fill="white" stroke="none" points="-4,4 -4,-273 661.25,-273 661.25,4 -4,4"/>
<!-- 3 -->
<g id="node1" class="node">
<title>3</title>
<path fill="none" stroke="black" d="M302.38,-0.5C302.38,-0.5 428.88,-0.5 428.88,-0.5 434.88,-0.5 440.88,-6.5 440.88,-12.5 440.88,-12.5 440.88,-37.5 440.88,-37.5 440.88,-43.5 434.88,-49.5 428.88,-49.5 428.88,-49.5 302.38,-49.5 302.38,-49.5 296.38,-49.5 290.38,-43.5 290.38,-37.5 290.38,-37.5 290.38,-12.5 290.38,-12.5 290.38,-6.5 296.38,-0.5 302.38,-0.5"/>
<text text-anchor="middle" x="328" y="-19.95" font-family="Times,serif" font-size="14.00">errorString</text>
<polyline fill="none" stroke="black" points="365.62,-0.5 365.62,-49.5"/>
<text text-anchor="middle" x="403.25" y="-32.2" font-family="Times,serif" font-size="14.00">s</text>
<polyline fill="none" stroke="black" points="365.62,-25 440.88,-25"/>
<text text-anchor="middle" x="403.25" y="-7.7" font-family="Times,serif" font-size="14.00">&quot;no name&quot;</text>
</g>
<!-- 4 -->
<g id="node2" class="node">
<title>4</title>
<path fill="none" stroke="black" d="M12,-86.5C12,-86.5 105.25,-86.5 105.25,-86.5 111.25,-86.5 117.25,-92.5 117.25,-98.5 117.25,-98.5 117.25,-110.5 117.25,-110.5 117.25,-116.5 111.25,-122.5 105.25,-122.5 105.25,-122.5 12,-122.5 12,-122.5 6,-122.5 0,-116.5 0,-110.5 0,-110.5 0,-98.5 0,-98.5 0,-92.5 6,-86.5 12,-86.5"/>
<text text-anchor="middle" x="58.62" y="-99.45" font-family="Times,serif" font-size="14.00">*errors.errorString</text>
</g>
<!-- 4&#45;&gt;3 -->
<g id="edge1" class="edge">
<title>4:name&#45;&gt;3:name</title>
<path fill="none" stroke="black" d="M90.3,-86.06C131.5,-63.77 206.66,-28.78 277.97,-25.28"/>
<polygon fill="black" stroke="black" points="277.95,-28.79 287.86,-25.04 277.78,-21.79 277.95,-28.79"/>
</g>
<!-- 5 -->
<g id="node3" class="node">
<title>5</title>
<path fill="none" stroke="black" d="M147,-86.5C147,-86.5 240.25,-86.5 240.25,-86.5 246.25,-86.5 252.25,-92.5 252.25,-98.5 252.25,-98.5 252.25,-110.5 252.25,-110.5 252.25,-116.5 246.25,-122.5 240.25,-122.5 240.25,-122.5 147,-122.5 147,-122.5 141,-122.5 135,-116.5 135,-110.5 135,-110.5 135,-98.5 135,-98.5 135,-92.5 141,-86.5 147,-86.5"/>
<text text-anchor="middle" x="193.62" y="-99.45" font-family="Times,serif" font-size="14.00">*errors.errorString</text>
</g>
<!-- 5&#45;&gt;3 -->
<g id="edge2" class="edge">
<title>5:name&#45;&gt;3:name</title>
<path fill="none" stroke="black" d="M204.69,-86.06C218.76,-64.96 245.21,-32.49 278.01,-26.11"/>
<polygon fill="black" stroke="black" points="278.26,-29.6 287.87,-25.15 277.58,-22.63 278.26,-29.6"/>
</g>
<!-- 6 -->
<g id="node4" class="node">
<title>6</title>
<path fill="none" stroke="black" d="M282,-86.5C282,-86.5 375.25,-86.5 375.25,-86.5 381.25,-86.5 387.25,-92.5 387.25,-98.5 387.25,-98.5 387.25,-110.5 387.25,-110.5 387.25,-116.5 381.25,-122.5 375.25,-122.5 375.25,-122.5 282,-122.5 282,-122.5 276,-122.5 270,-116.5 270,-110.5 270,-110.5 270,-98.5 270,-98.5 270,-92.5 276,-86.5 282,-86.5"/>
<text text-anchor="middle" x="328.62" y="-99.45" font-family="Times,serif" font-size="14.00">*errors.errorString</text>
</g>
<!-- 6&#45;&gt;3 -->
<g id="edge3" class="edge">
<title>6:name&#45;&gt;3:name</title>
<path fill="none" stroke="black" d="M328.31,-86.09C328.2,-78.74 328.09,-69.97 328.04,-61.27"/>
<polygon fill="black" stroke="black" points="331.54,-61.5 328.01,-51.51 324.54,-61.53 331.54,-61.5"/>
</g>
<!-- 7 -->
<g id="node5" class="node">
<title>7</title>
<path fill="none" stroke="black" d="M417,-86.5C417,-86.5 510.25,-86.5 510.25,-86.5 516.25,-86.5 522.25,-92.5 522.25,-98.5 522.25,-98.5 522.25,-110.5 522.25,-110.5 522.25,-116.5 516.25,-122.5 510.25,-122.5 510.25,-122.5 417,-122.5 417,-122.5 411,-122.5 405,-116.5 405,-110.5 405,-110.5 405,-98.5 405,-98.5 405,-92.5 411,-86.5 417,-86.5"/>
<text text-anchor="middle" x="463.62" y="-99.45" font-family="Times,serif" font-size="14.00">*errors.errorString</text>
</g>
<!-- 7&#45;&gt;3 -->
<g id="edge4" class="edge">
<title>7:name&#45;&gt;3:name</title>
<path fill="none" stroke="black" d="M411.58,-86.09C383.79,-75.98 352.26,-63.99 337.1,-56.38"/>
<polygon fill="black" stroke="black" points="339.43,-53.75 329.24,-50.87 335.41,-59.48 339.43,-53.75"/>
</g>
<!-- 8 -->
<g id="node6" class="node">
<title>8</title>
<path fill="none" stroke="black" d="M552,-86.5C552,-86.5 645.25,-86.5 645.25,-86.5 651.25,-86.5 657.25,-92.5 657.25,-98.5 657.25,-98.5 657.25,-110.5 657.25,-110.5 657.25,-116.5 651.25,-122.5 645.25,-122.5 645.25,-122.5 552,-122.5 552,-122.5 546,-122.5 540,-116.5 540,-110.5 540,-110.5 540,-98.5 540,-98.5 540,-92.5 546,-86.5 552,-86.5"/>
<text text-anchor="middle" x="598.62" y="-99.45" font-family="Times,serif" font-size="14.00">*errors.errorString</text>
</g>
<!-- 8&#45;&gt;3 -->
<g id="edge5" class="edge">
<title>8:name&#45;&gt;3:name</title>
<path fill="none" stroke="black" d="M539.73,-85.93C496.93,-75.82 355.47,-94.02 331.47,-60.8"/>
<polygon fill="black" stroke="black" points="334.86,-59.89 328.46,-51.44 328.19,-62.03 334.86,-59.89"/>
</g>
<!-- 2 -->
<g id="node7" class="node">
<title>2</title>
<path fill="none" stroke="black" d="M233.12,-159.5C233.12,-159.5 374.12,-159.5 374.12,-159.5 380.12,-159.5 386.12,-165.5 386.12,-171.5 386.12,-171.5 386.12,-183.5 386.12,-183.5 386.12,-189.5 380.12,-195.5 374.12,-195.5 374.12,-195.5 233.12,-195.5 233.12,-195.5 227.12,-195.5 221.12,-189.5 221.12,-183.5 221.12,-183.5 221.12,-171.5 221.12,-171.5 221.12,-165.5 227.12,-159.5 233.12,-159.5"/>
<text text-anchor="middle" x="246.75" y="-172.45" font-family="Times,serif" font-size="14.00">[]error</text>
<polyline fill="none" stroke="black" points="272.38,-159.5 272.38,-195.5"/>
<text text-anchor="middle" x="283.75" y="-172.45" font-family="Times,serif" font-size="14.00">0</text>
<polyline fill="none" stroke="black" points="295.12,-159.5 295.12,-195.5"/>
<text text-anchor="middle" x="306.5" y="-172.45" font-family="Times,serif" font-size="14.00">1</text>
<polyline fill="none" stroke="black" points="317.88,-159.5 317.88,-195.5"/>
<text text-anchor="middle" x="329.25" y="-172.45" font-family="Times,serif" font-size="14.00">2</text>
<polyline fill="none" stroke="black" points="340.62,-159.5 340.62,-195.5"/>
<text text-anchor="middle" x="352" y="-172.45" font-family="Times,serif" font-size="14.00">3</text>
<polyline fill="none" stroke="black" points="363.38,-159.5 363.38,-195.5"/>
<text text-anchor="middle" x="374.75" y="-172.45" font-family="Times,serif" font-size="14.00">4</text>
</g>
<!-- 2&#45;&gt;4 -->
<g id="edge6" class="edge">
<title>2:2index0&#45;&gt;4:name</title>
<path fill="none" stroke="black" d="M283.75,-159C283.75,-124.46 175.59,-131.06 128.86,-125.11"/>
<polygon fill="black" stroke="black" points="129.63,-121.69 119.17,-123.38 128.4,-128.58 129.63,-121.69"/>
</g>
<!-- 2&#45;&gt;5 -->
<g id="edge7" class="edge">
<title>2:2index1&#45;&gt;5:name</title>
<path fill="none" stroke="black" d="M306.5,-159C306.5,-152.2 279.58,-139.04 252.03,-127.36"/>
<polygon fill="black" stroke="black" points="253.47,-124.17 242.89,-123.55 250.78,-130.63 253.47,-124.17"/>
</g>
<!-- 2&#45;&gt;6 -->
<g id="edge8" class="edge">
<title>2:2index2&#45;&gt;6:name</title>
<path fill="none" stroke="black" d="M329.25,-159C329.25,-151.02 329.18,-142.38 329.09,-134.39"/>
<polygon fill="black" stroke="black" points="332.59,-134.38 328.96,-124.43 325.59,-134.47 332.59,-134.38"/>
</g>
<!-- 2&#45;&gt;7 -->
<g id="edge9" class="edge">
<title>2:2index3&#45;&gt;7:name</title>
<path fill="none" stroke="black" d="M352,-159C352,-152.24 378.81,-139.01 406.16,-127.28"/>
<polygon fill="black" stroke="black" points="407.36,-130.57 415.21,-123.46 404.64,-124.12 407.36,-130.57"/>
</g>
<!-- 2&#45;&gt;8 -->
<g id="edge10" class="edge">
<title>2:2index4&#45;&gt;8:name</title>
<path fill="none" stroke="black" d="M387.12,-177.5C448.72,-177.5 515.15,-149.49 556.8,-128.18"/>
<polygon fill="black" stroke="black" points="558.26,-131.36 565.49,-123.62 555.01,-125.16 558.26,-131.36"/>
</g>
<!-- 1 -->
<g id="node8" class="node">
<title>1</title>
<path fill="none" stroke="black" d="M175.75,-232.5C175.75,-232.5 253.5,-232.5 253.5,-232.5 259.5,-232.5 265.5,-238.5 265.5,-244.5 265.5,-244.5 265.5,-256.5 265.5,-256.5 265.5,-262.5 259.5,-268.5 253.5,-268.5 253.5,-268.5 175.75,-268.5 175.75,-268.5 169.75,-268.5 163.75,-262.5 163.75,-256.5 163.75,-256.5 163.75,-244.5 163.75,-244.5 163.75,-238.5 169.75,-232.5 175.75,-232.5"/>
<text text-anchor="middle" x="196.5" y="-245.45" font-family="Times,serif" font-size="14.00">joinError</text>
<polyline fill="none" stroke="black" points="229.25,-232.5 229.25,-268.5"/>
<text text-anchor="middle" x="247.38" y="-245.45" font-family="Times,serif" font-size="14.00">errs</text>
</g>
<!-- 1&#45;&gt;2 -->
<g id="edge11" class="edge">
<title>1:f0&#45;&gt;2:name</title>
<path fill="none" stroke="black" d="M247.38,-232C247.38,-220.62 247.06,-215.32 246.88,-207.45"/>
<polygon fill="black" stroke="black" points="250.38,-207.47 246.77,-197.51 243.38,-207.55 250.38,-207.47"/>
</g>
</g>
</svg>
