<?xml version="1.0" encoding="UTF-8" standalone="no"?>
<!DOCTYPE svg PUBLIC "-//W3C//DTD SVG 1.1//EN"
 "http://www.w3.org/Graphics/SVG/1.1/DTD/svg11.dtd">
<!-- Generated by graphviz version 9.0.0 (20230911.1827)
 -->
<!-- Title: example Pages: 1 -->
<svg width="142pt" height="116pt"
 viewBox="0.00 0.00 142.39 116.00" xmlns="http://www.w3.org/2000/svg" xmlns:xlink="http://www.w3.org/1999/xlink">
<g id="graph0" class="graph" transform="scale(1 1) rotate(0) translate(4 112)">
<title>example</title>
<polygon fill="white" stroke="none" points="-4,4 -4,-112 138.39,-112 138.39,4 -4,4"/>
<!-- server -->
<g id="node1" class="node">
<title>server</title>
<ellipse fill="none" stroke="black" cx="69.39" cy="-90" rx="33.44" ry="18"/>
<text text-anchor="middle" x="69.39" y="-84.95" font-family="Times,serif" font-size="14.00">server</text>
</g>
<!-- client -->
<g id="node2" class="node">
<title>client</title>
<ellipse fill="none" stroke="black" cx="31.39" cy="-18" rx="31.39" ry="18"/>
<text text-anchor="middle" x="31.39" y="-12.95" font-family="Times,serif" font-size="14.00">client</text>
</g>
<!-- server&#45;&gt;client -->
<g id="edge1" class="edge">
<title>server&#45;&gt;client</title>
<path fill="none" stroke="black" d="M54.91,-62.32C50.01,-53.29 44.68,-43.47 40.33,-35.47"/>
<polygon fill="black" stroke="black" points="51.82,-63.96 59.66,-71.08 57.97,-60.62 51.82,-63.96"/>
</g>
<!-- dot -->
<g id="node3" class="node">
<title>dot</title>
<ellipse fill="none" stroke="black" cx="107.39" cy="-18" rx="27" ry="18"/>
<text text-anchor="middle" x="107.39" y="-12.95" font-family="Times,serif" font-size="14.00">dot</text>
</g>
<!-- server&#45;&gt;dot -->
<g id="edge2" class="edge">
<title>server&#45;&gt;dot</title>
<path fill="none" stroke="black" d="M78.4,-72.41C82.75,-64.39 88.08,-54.57 92.98,-45.54"/>
<polygon fill="black" stroke="black" points="96.03,-47.26 97.73,-36.8 89.88,-43.92 96.03,-47.26"/>
</g>
</g>
</svg>

