<?xml version="1.0" encoding="UTF-8" standalone="no"?>
<!DOCTYPE svg PUBLIC "-//W3C//DTD SVG 1.1//EN"
 "http://www.w3.org/Graphics/SVG/1.1/DTD/svg11.dtd">
<!-- Generated by graphviz version 9.0.0 (20230911.1827)
 -->
<!-- Title: deps Pages: 1 -->
<svg width="762pt" height="188pt"
 viewBox="0.00 0.00 762.22 188.00" xmlns="http://www.w3.org/2000/svg" xmlns:xlink="http://www.w3.org/1999/xlink">
<g id="graph0" class="graph" transform="scale(1 1) rotate(0) translate(4 184)">
<title>deps</title>
<polygon fill="white" stroke="none" points="-4,4 -4,-184 758.22,-184 758.22,4 -4,4"/>
<!-- go@1.22.0 -->
<g id="node1" class="node">
<title>go@1.22.0</title>
<ellipse fill="none" stroke="black" cx="86.67" cy="-90" rx="52.38" ry="18"/>
<text text-anchor="middle" x="86.67" y="-84.95" font-family="Times,serif" font-size="14.00">go@1.22.0</text>
</g>
<!-- toolchain@go1.22.0 -->
<g id="node2" class="node">
<title>toolchain@go1.22.0</title>
<ellipse fill="none" stroke="black" cx="86.67" cy="-18" rx="86.67" ry="18"/>
<text text-anchor="middle" x="86.67" y="-12.95" font-family="Times,serif" font-size="14.00">toolchain@go1.22.0</text>
</g>
<!-- go@1.22.0&#45;&gt;toolchain@go1.22.0 -->
<g id="edge1" class="edge">
<title>go@1.22.0&#45;&gt;toolchain@go1.22.0</title>
<path fill="none" stroke="black" d="M86.67,-71.7C86.67,-64.41 86.67,-55.73 86.67,-47.54"/>
<polygon fill="black" stroke="black" points="90.17,-47.62 86.67,-37.62 83.17,-47.62 90.17,-47.62"/>
</g>
<!-- github.com/jonjohnsonjr/til/graphviz/src/jig -->
<g id="node3" class="node">
<title>github.com/jonjohnsonjr/til/graphviz/src/jig</title>
<ellipse fill="none" stroke="black" cx="270.67" cy="-162" rx="173.16" ry="18"/>
<text text-anchor="middle" x="270.67" y="-156.95" font-family="Times,serif" font-size="14.00">github.com/jonjohnsonjr/til/graphviz/src/jig</text>
</g>
<!-- github.com/jonjohnsonjr/til/graphviz/src/jig&#45;&gt;go@1.22.0 -->
<g id="edge3" class="edge">
<title>github.com/jonjohnsonjr/til/graphviz/src/jig&#45;&gt;go@1.22.0</title>
<path fill="none" stroke="black" d="M226.59,-144.23C197.84,-133.29 160.42,-119.06 131.51,-108.06"/>
<polygon fill="black" stroke="black" points="132.89,-104.84 122.3,-104.56 130.4,-111.38 132.89,-104.84"/>
</g>
<!-- github.com/skratchdot/open&#45;golang@v0.0.0&#45;20200116055534&#45;eef842397966 -->
<g id="node4" class="node">
<title>github.com/skratchdot/open&#45;golang@v0.0.0&#45;20200116055534&#45;eef842397966</title>
<ellipse fill="none" stroke="black" cx="455.67" cy="-90" rx="298.55" ry="18"/>
<text text-anchor="middle" x="455.67" y="-84.95" font-family="Times,serif" font-size="14.00">github.com/skratchdot/open&#45;golang@v0.0.0&#45;20200116055534&#45;eef842397966</text>
</g>
<!-- github.com/jonjohnsonjr/til/graphviz/src/jig&#45;&gt;github.com/skratchdot/open&#45;golang@v0.0.0&#45;20200116055534&#45;eef842397966 -->
<g id="edge2" class="edge">
<title>github.com/jonjohnsonjr/til/graphviz/src/jig&#45;&gt;github.com/skratchdot/open&#45;golang@v0.0.0&#45;20200116055534&#45;eef842397966</title>
<path fill="none" stroke="black" d="M314.98,-144.23C340.36,-134.63 372.47,-122.48 399.59,-112.22"/>
<polygon fill="black" stroke="black" points="400.58,-115.59 408.69,-108.77 398.1,-109.04 400.58,-115.59"/>
</g>
</g>
</svg>
