<?xml version="1.0" encoding="UTF-8" standalone="no"?>
<!DOCTYPE svg PUBLIC "-//W3C//DTD SVG 1.1//EN"
 "http://www.w3.org/Graphics/SVG/1.1/DTD/svg11.dtd">
<!-- Generated by graphviz version 9.0.0 (20230911.1827)
 -->
<!-- Title: deps Pages: 1 -->
<svg width="868pt" height="2150pt"
 viewBox="0.00 0.00 867.67 2150.00" xmlns="http://www.w3.org/2000/svg" xmlns:xlink="http://www.w3.org/1999/xlink">
<g id="graph0" class="graph" transform="scale(1 1) rotate(0) translate(4 2146)">
<title>deps</title>
<polygon fill="white" stroke="none" points="-4,4 -4,-2146 863.67,-2146 863.67,4 -4,4"/>
<!-- github.com/google/go&#45;containerregistry -->
<g id="node1" class="node">
<title>github.com/google/go&#45;containerregistry</title>
<ellipse fill="none" stroke="black" stroke-width="2" cx="158.32" cy="-1071" rx="158.32" ry="18"/>
<text text-anchor="middle" x="158.32" y="-1065.95" font-family="Times,serif" font-size="14.00">github.com/google/go&#45;containerregistry</text>
</g>
<!-- golang.org/x/time@v0.0.0&#45;20210723032227&#45;1f47c861a9ac -->
<g id="node2" class="node">
<title>golang.org/x/time@v0.0.0&#45;20210723032227&#45;1f47c861a9ac</title>
<g id="a_node2"><a xlink:href="?n=github.com%2Fgoogle%2Fgo-containerregistry&amp;n=golang.org%2Fx%2Ftime%40v0.0.0-20210723032227-1f47c861a9ac" xlink:title="golang.org/x/time@v0.0.0&#45;20210723032227&#45;1f47c861a9ac">
<ellipse fill="none" stroke="black" cx="606.15" cy="-2124" rx="232.02" ry="18"/>
<text text-anchor="middle" x="606.15" y="-2118.95" font-family="Times,serif" font-size="14.00">golang.org/x/time@v0.0.0&#45;20210723032227&#45;1f47c861a9ac</text>
</a>
</g>
</g>
<!-- github.com/google/go&#45;containerregistry&#45;&gt;golang.org/x/time@v0.0.0&#45;20210723032227&#45;1f47c861a9ac -->
<g id="edge1" class="edge">
<title>github.com/google/go&#45;containerregistry&#45;&gt;golang.org/x/time@v0.0.0&#45;20210723032227&#45;1f47c861a9ac</title>
<path fill="none" stroke="black" d="M159.9,-1089.24C164.34,-1215.04 196.82,-1953.14 352.64,-2097 359.3,-2103.15 366.52,-2108.49 374.17,-2113.1"/>
<polygon fill="black" stroke="black" points="372.3,-2116.07 382.75,-2117.84 375.69,-2109.94 372.3,-2116.07"/>
</g>
<!-- github.com/cpuguy83/go&#45;md2man/v2@v2.0.2 -->
<g id="node3" class="node">
<title>github.com/cpuguy83/go&#45;md2man/v2@v2.0.2</title>
<g id="a_node3"><a xlink:href="?n=github.com%2Fgoogle%2Fgo-containerregistry&amp;n=github.com%2Fcpuguy83%2Fgo-md2man%2Fv2%40v2.0.2" xlink:title="github.com/cpuguy83/go&#45;md2man/v2@v2.0.2">
<ellipse fill="none" stroke="black" cx="606.15" cy="-2070" rx="184.42" ry="18"/>
<text text-anchor="middle" x="606.15" y="-2064.95" font-family="Times,serif" font-size="14.00">github.com/cpuguy83/go&#45;md2man/v2@v2.0.2</text>
</a>
</g>
</g>
<!-- github.com/google/go&#45;containerregistry&#45;&gt;github.com/cpuguy83/go&#45;md2man/v2@v2.0.2 -->
<g id="edge2" class="edge">
<title>github.com/google/go&#45;containerregistry&#45;&gt;github.com/cpuguy83/go&#45;md2man/v2@v2.0.2</title>
<path fill="none" stroke="black" d="M160.12,-1089.46C165.83,-1212.02 204.52,-1907.62 352.64,-2043 389.62,-2076.8 443.54,-2085.92 492.06,-2085.6"/>
<polygon fill="black" stroke="black" points="491.85,-2089.1 501.77,-2085.39 491.7,-2082.1 491.85,-2089.1"/>
</g>
<!-- github.com/docker/go&#45;connections@v0.4.0 -->
<g id="node4" class="node">
<title>github.com/docker/go&#45;connections@v0.4.0</title>
<g id="a_node4"><a xlink:href="?n=github.com%2Fgoogle%2Fgo-containerregistry&amp;n=github.com%2Fdocker%2Fgo-connections%40v0.4.0" xlink:title="github.com/docker/go&#45;connections@v0.4.0">
<ellipse fill="none" stroke="black" cx="606.15" cy="-2016" rx="172.14" ry="18"/>
<text text-anchor="middle" x="606.15" y="-2010.95" font-family="Times,serif" font-size="14.00">github.com/docker/go&#45;connections@v0.4.0</text>
</a>
</g>
</g>
<!-- github.com/google/go&#45;containerregistry&#45;&gt;github.com/docker/go&#45;connections@v0.4.0 -->
<g id="edge3" class="edge">
<title>github.com/google/go&#45;containerregistry&#45;&gt;github.com/docker/go&#45;connections@v0.4.0</title>
<path fill="none" stroke="black" d="M160.33,-1089.2C167.3,-1207.09 212.02,-1861.91 352.64,-1989 390.5,-2023.21 445.73,-2032.01 494.9,-2031.38"/>
<polygon fill="black" stroke="black" points="494.85,-2034.88 504.75,-2031.11 494.66,-2027.88 494.85,-2034.88"/>
</g>
<!-- github.com/docker/go&#45;units@v0.5.0 -->
<g id="node5" class="node">
<title>github.com/docker/go&#45;units@v0.5.0</title>
<g id="a_node5"><a xlink:href="?n=github.com%2Fgoogle%2Fgo-containerregistry&amp;n=github.com%2Fdocker%2Fgo-units%40v0.5.0" xlink:title="github.com/docker/go&#45;units@v0.5.0">
<ellipse fill="none" stroke="black" cx="606.15" cy="-1962" rx="146.04" ry="18"/>
<text text-anchor="middle" x="606.15" y="-1956.95" font-family="Times,serif" font-size="14.00">github.com/docker/go&#45;units@v0.5.0</text>
</a>
</g>
</g>
<!-- github.com/google/go&#45;containerregistry&#45;&gt;github.com/docker/go&#45;units@v0.5.0 -->
<g id="edge4" class="edge">
<title>github.com/google/go&#45;containerregistry&#45;&gt;github.com/docker/go&#45;units@v0.5.0</title>
<path fill="none" stroke="black" d="M160.59,-1089.23C168.92,-1203.15 219.61,-1816.28 352.64,-1935 392.85,-1970.89 452.25,-1978.66 503.33,-1976.98"/>
<polygon fill="black" stroke="black" points="503.43,-1980.48 513.26,-1976.51 503.1,-1973.49 503.43,-1980.48"/>
</g>
<!-- github.com/google/go&#45;cmp@v0.5.9 -->
<g id="node6" class="node">
<title>github.com/google/go&#45;cmp@v0.5.9</title>
<g id="a_node6"><a xlink:href="?n=github.com%2Fgoogle%2Fgo-containerregistry&amp;n=github.com%2Fgoogle%2Fgo-cmp%40v0.5.9" xlink:title="github.com/google/go&#45;cmp@v0.5.9">
<ellipse fill="none" stroke="black" cx="606.15" cy="-1908" rx="144.5" ry="18"/>
<text text-anchor="middle" x="606.15" y="-1902.95" font-family="Times,serif" font-size="14.00">github.com/google/go&#45;cmp@v0.5.9</text>
</a>
</g>
</g>
<!-- github.com/google/go&#45;containerregistry&#45;&gt;github.com/google/go&#45;cmp@v0.5.9 -->
<g id="edge5" class="edge">
<title>github.com/google/go&#45;containerregistry&#45;&gt;github.com/google/go&#45;cmp@v0.5.9</title>
<path fill="none" stroke="black" d="M160.87,-1089.15C170.62,-1198.7 227.13,-1770.58 352.64,-1881 392.88,-1916.4 451.84,-1924.27 502.66,-1922.77"/>
<polygon fill="black" stroke="black" points="502.69,-1926.27 512.53,-1922.34 502.39,-1919.28 502.69,-1926.27"/>
</g>
<!-- cloud.google.com/go/compute/metadata@v0.2.3 -->
<g id="node7" class="node">
<title>cloud.google.com/go/compute/metadata@v0.2.3</title>
<g id="a_node7"><a xlink:href="?n=github.com%2Fgoogle%2Fgo-containerregistry&amp;n=cloud.google.com%2Fgo%2Fcompute%2Fmetadata%40v0.2.3" xlink:title="cloud.google.com/go/compute/metadata@v0.2.3">
<ellipse fill="none" stroke="black" cx="606.15" cy="-1854" rx="193.12" ry="18"/>
<text text-anchor="middle" x="606.15" y="-1848.95" font-family="Times,serif" font-size="14.00">cloud.google.com/go/compute/metadata@v0.2.3</text>
</a>
</g>
</g>
<!-- github.com/google/go&#45;containerregistry&#45;&gt;cloud.google.com/go/compute/metadata@v0.2.3 -->
<g id="edge6" class="edge">
<title>github.com/google/go&#45;containerregistry&#45;&gt;cloud.google.com/go/compute/metadata@v0.2.3</title>
<path fill="none" stroke="black" d="M161.21,-1089.31C172.53,-1194.9 234.72,-1724.93 352.64,-1827 386.29,-1856.13 432.68,-1866.49 476.52,-1868.34"/>
<polygon fill="black" stroke="black" points="476.3,-1871.84 486.39,-1868.6 476.48,-1864.84 476.3,-1871.84"/>
</g>
<!-- golang.org/x/sys@v0.15.0 -->
<g id="node8" class="node">
<title>golang.org/x/sys@v0.15.0</title>
<g id="a_node8"><a xlink:href="?n=github.com%2Fgoogle%2Fgo-containerregistry&amp;n=golang.org%2Fx%2Fsys%40v0.15.0" xlink:title="golang.org/x/sys@v0.15.0">
<ellipse fill="none" stroke="black" cx="606.15" cy="-1800" rx="109.19" ry="18"/>
<text text-anchor="middle" x="606.15" y="-1794.95" font-family="Times,serif" font-size="14.00">golang.org/x/sys@v0.15.0</text>
</a>
</g>
</g>
<!-- github.com/google/go&#45;containerregistry&#45;&gt;golang.org/x/sys@v0.15.0 -->
<g id="edge7" class="edge">
<title>github.com/google/go&#45;containerregistry&#45;&gt;golang.org/x/sys@v0.15.0</title>
<path fill="none" stroke="black" d="M161.59,-1089.32C174.53,-1190.43 242.22,-1679.18 352.64,-1773 397.1,-1810.78 463.08,-1816.71 516.44,-1813.63"/>
<polygon fill="black" stroke="black" points="516.38,-1817.15 526.11,-1812.95 515.89,-1810.16 516.38,-1817.15"/>
</g>
<!-- github.com/spf13/cobra@v1.7.0 -->
<g id="node9" class="node">
<title>github.com/spf13/cobra@v1.7.0</title>
<g id="a_node9"><a xlink:href="?n=github.com%2Fgoogle%2Fgo-containerregistry&amp;n=github.com%2Fspf13%2Fcobra%40v1.7.0" xlink:title="github.com/spf13/cobra@v1.7.0">
<ellipse fill="none" stroke="black" cx="606.15" cy="-1746" rx="131.71" ry="18"/>
<text text-anchor="middle" x="606.15" y="-1740.95" font-family="Times,serif" font-size="14.00">github.com/spf13/cobra@v1.7.0</text>
</a>
</g>
</g>
<!-- github.com/google/go&#45;containerregistry&#45;&gt;github.com/spf13/cobra@v1.7.0 -->
<g id="edge8" class="edge">
<title>github.com/google/go&#45;containerregistry&#45;&gt;github.com/spf13/cobra@v1.7.0</title>
<path fill="none" stroke="black" d="M162.06,-1089.49C176.78,-1186.28 249.73,-1633.43 352.64,-1719 393.92,-1753.33 453.08,-1761.11 503.76,-1759.83"/>
<polygon fill="black" stroke="black" points="503.73,-1763.33 513.59,-1759.45 503.46,-1756.34 503.73,-1763.33"/>
</g>
<!-- github.com/spf13/pflag@v1.0.5 -->
<g id="node10" class="node">
<title>github.com/spf13/pflag@v1.0.5</title>
<g id="a_node10"><a xlink:href="?n=github.com%2Fgoogle%2Fgo-containerregistry&amp;n=github.com%2Fspf13%2Fpflag%40v1.0.5" xlink:title="github.com/spf13/pflag@v1.0.5">
<ellipse fill="none" stroke="black" cx="606.15" cy="-1692" rx="130.17" ry="18"/>
<text text-anchor="middle" x="606.15" y="-1686.95" font-family="Times,serif" font-size="14.00">github.com/spf13/pflag@v1.0.5</text>
</a>
</g>
</g>
<!-- github.com/google/go&#45;containerregistry&#45;&gt;github.com/spf13/pflag@v1.0.5 -->
<g id="edge9" class="edge">
<title>github.com/google/go&#45;containerregistry&#45;&gt;github.com/spf13/pflag@v1.0.5</title>
<path fill="none" stroke="black" d="M158.78,-1089.35C157.46,-1171.97 163.95,-1512 352.64,-1665 393.95,-1698.5 452.39,-1706.42 502.65,-1705.44"/>
<polygon fill="black" stroke="black" points="502.51,-1708.94 512.39,-1705.12 502.28,-1701.95 502.51,-1708.94"/>
</g>
<!-- golang.org/x/net@v0.17.0 -->
<g id="node11" class="node">
<title>golang.org/x/net@v0.17.0</title>
<g id="a_node11"><a xlink:href="?n=github.com%2Fgoogle%2Fgo-containerregistry&amp;n=golang.org%2Fx%2Fnet%40v0.17.0" xlink:title="golang.org/x/net@v0.17.0">
<ellipse fill="none" stroke="black" cx="606.15" cy="-1638" rx="108.67" ry="18"/>
<text text-anchor="middle" x="606.15" y="-1632.95" font-family="Times,serif" font-size="14.00">golang.org/x/net@v0.17.0</text>
</a>
</g>
</g>
<!-- github.com/google/go&#45;containerregistry&#45;&gt;golang.org/x/net@v0.17.0 -->
<g id="edge10" class="edge">
<title>github.com/google/go&#45;containerregistry&#45;&gt;golang.org/x/net@v0.17.0</title>
<path fill="none" stroke="black" d="M159.44,-1089.28C161.04,-1167.22 178.53,-1473.98 352.64,-1611 397.1,-1645.99 460.44,-1652.69 512.56,-1650.66"/>
<polygon fill="black" stroke="black" points="512.52,-1654.17 522.33,-1650.16 512.17,-1647.18 512.52,-1654.17"/>
</g>
<!-- google.golang.org/protobuf@v1.30.0 -->
<g id="node12" class="node">
<title>google.golang.org/protobuf@v1.30.0</title>
<g id="a_node12"><a xlink:href="?n=github.com%2Fgoogle%2Fgo-containerregistry&amp;n=google.golang.org%2Fprotobuf%40v1.30.0" xlink:title="google.golang.org/protobuf@v1.30.0">
<ellipse fill="none" stroke="black" cx="606.15" cy="-1584" rx="149.62" ry="18"/>
<text text-anchor="middle" x="606.15" y="-1578.95" font-family="Times,serif" font-size="14.00">google.golang.org/protobuf@v1.30.0</text>
</a>
</g>
</g>
<!-- github.com/google/go&#45;containerregistry&#45;&gt;google.golang.org/protobuf@v1.30.0 -->
<g id="edge11" class="edge">
<title>github.com/google/go&#45;containerregistry&#45;&gt;google.golang.org/protobuf@v1.30.0</title>
<path fill="none" stroke="black" d="M160.24,-1089.46C164.99,-1162.86 193.17,-1435.93 352.64,-1557 389.38,-1584.9 438.27,-1594.5 483.24,-1596.1"/>
<polygon fill="black" stroke="black" points="483,-1599.6 493.07,-1596.31 483.15,-1592.6 483,-1599.6"/>
</g>
<!-- github.com/docker/distribution@v2.8.2+incompatible -->
<g id="node13" class="node">
<title>github.com/docker/distribution@v2.8.2+incompatible</title>
<g id="a_node13"><a xlink:href="?n=github.com%2Fgoogle%2Fgo-containerregistry&amp;n=github.com%2Fdocker%2Fdistribution%40v2.8.2%2Bincompatible" xlink:title="github.com/docker/distribution@v2.8.2+incompatible">
<ellipse fill="none" stroke="black" cx="606.15" cy="-1530" rx="212.57" ry="18"/>
<text text-anchor="middle" x="606.15" y="-1524.95" font-family="Times,serif" font-size="14.00">github.com/docker/distribution@v2.8.2+incompatible</text>
</a>
</g>
</g>
<!-- github.com/google/go&#45;containerregistry&#45;&gt;github.com/docker/distribution@v2.8.2+incompatible -->
<g id="edge12" class="edge">
<title>github.com/google/go&#45;containerregistry&#45;&gt;github.com/docker/distribution@v2.8.2+incompatible</title>
<path fill="none" stroke="black" d="M161.2,-1089.3C169.25,-1157.38 207.39,-1397.48 352.64,-1503 363.37,-1510.79 375.06,-1517.13 387.34,-1522.24"/>
<polygon fill="black" stroke="black" points="385.79,-1525.39 396.38,-1525.71 388.3,-1518.86 385.79,-1525.39"/>
</g>
<!-- github.com/gogo/protobuf@v1.3.2 -->
<g id="node14" class="node">
<title>github.com/gogo/protobuf@v1.3.2</title>
<g id="a_node14"><a xlink:href="?n=github.com%2Fgoogle%2Fgo-containerregistry&amp;n=github.com%2Fgogo%2Fprotobuf%40v1.3.2" xlink:title="github.com/gogo/protobuf@v1.3.2">
<ellipse fill="none" stroke="black" cx="606.15" cy="-1476" rx="140.92" ry="18"/>
<text text-anchor="middle" x="606.15" y="-1470.95" font-family="Times,serif" font-size="14.00">github.com/gogo/protobuf@v1.3.2</text>
</a>
</g>
</g>
<!-- github.com/google/go&#45;containerregistry&#45;&gt;github.com/gogo/protobuf@v1.3.2 -->
<g id="edge13" class="edge">
<title>github.com/google/go&#45;containerregistry&#45;&gt;github.com/gogo/protobuf@v1.3.2</title>
<path fill="none" stroke="black" d="M162.39,-1089.2C174.01,-1151.71 221.44,-1358.8 352.64,-1449 388.82,-1473.88 435.08,-1483.48 478.08,-1485.94"/>
<polygon fill="black" stroke="black" points="477.87,-1489.43 488.01,-1486.36 478.17,-1482.44 477.87,-1489.43"/>
</g>
<!-- github.com/inconshreveable/mousetrap@v1.1.0 -->
<g id="node15" class="node">
<title>github.com/inconshreveable/mousetrap@v1.1.0</title>
<g id="a_node15"><a xlink:href="?n=github.com%2Fgoogle%2Fgo-containerregistry&amp;n=github.com%2Finconshreveable%2Fmousetrap%40v1.1.0" xlink:title="github.com/inconshreveable/mousetrap@v1.1.0">
<ellipse fill="none" stroke="black" cx="606.15" cy="-1422" rx="189.54" ry="18"/>
<text text-anchor="middle" x="606.15" y="-1416.95" font-family="Times,serif" font-size="14.00">github.com/inconshreveable/mousetrap@v1.1.0</text>
</a>
</g>
</g>
<!-- github.com/google/go&#45;containerregistry&#45;&gt;github.com/inconshreveable/mousetrap@v1.1.0 -->
<g id="edge14" class="edge">
<title>github.com/google/go&#45;containerregistry&#45;&gt;github.com/inconshreveable/mousetrap@v1.1.0</title>
<path fill="none" stroke="black" d="M164.02,-1089.38C179.6,-1146.24 235.43,-1319.93 352.64,-1395 368.78,-1405.34 386.72,-1412.94 405.38,-1418.44"/>
<polygon fill="black" stroke="black" points="404.41,-1421.81 414.98,-1421.05 406.25,-1415.05 404.41,-1421.81"/>
</g>
<!-- github.com/klauspost/compress@v1.16.5 -->
<g id="node16" class="node">
<title>github.com/klauspost/compress@v1.16.5</title>
<g id="a_node16"><a xlink:href="?n=github.com%2Fgoogle%2Fgo-containerregistry&amp;n=github.com%2Fklauspost%2Fcompress%40v1.16.5" xlink:title="github.com/klauspost/compress@v1.16.5">
<ellipse fill="none" stroke="black" cx="606.15" cy="-1368" rx="165.48" ry="18"/>
<text text-anchor="middle" x="606.15" y="-1362.95" font-family="Times,serif" font-size="14.00">github.com/klauspost/compress@v1.16.5</text>
</a>
</g>
</g>
<!-- github.com/google/go&#45;containerregistry&#45;&gt;github.com/klauspost/compress@v1.16.5 -->
<g id="edge15" class="edge">
<title>github.com/google/go&#45;containerregistry&#45;&gt;github.com/klauspost/compress@v1.16.5</title>
<path fill="none" stroke="black" d="M166.09,-1089.18C185.87,-1139.43 248.8,-1280.44 352.64,-1341 376.43,-1354.87 403.64,-1363.58 431.19,-1368.83"/>
<polygon fill="black" stroke="black" points="430.23,-1372.21 440.68,-1370.47 431.42,-1365.31 430.23,-1372.21"/>
</g>
<!-- github.com/docker/cli@v24.0.0+incompatible -->
<g id="node17" class="node">
<title>github.com/docker/cli@v24.0.0+incompatible</title>
<g id="a_node17"><a xlink:href="?n=github.com%2Fgoogle%2Fgo-containerregistry&amp;n=github.com%2Fdocker%2Fcli%40v24.0.0%2Bincompatible" xlink:title="github.com/docker/cli@v24.0.0+incompatible">
<ellipse fill="none" stroke="black" cx="606.15" cy="-1314" rx="183.91" ry="18"/>
<text text-anchor="middle" x="606.15" y="-1308.95" font-family="Times,serif" font-size="14.00">github.com/docker/cli@v24.0.0+incompatible</text>
</a>
</g>
</g>
<!-- github.com/google/go&#45;containerregistry&#45;&gt;github.com/docker/cli@v24.0.0+incompatible -->
<g id="edge16" class="edge">
<title>github.com/google/go&#45;containerregistry&#45;&gt;github.com/docker/cli@v24.0.0+incompatible</title>
<path fill="none" stroke="black" d="M169.24,-1089.27C193.77,-1132.42 261.95,-1240.52 352.64,-1287 371.52,-1296.68 392.22,-1303.67 413.39,-1308.64"/>
<polygon fill="black" stroke="black" points="412.5,-1312.03 423.02,-1310.74 413.99,-1305.19 412.5,-1312.03"/>
</g>
<!-- github.com/docker/docker@v24.0.0+incompatible -->
<g id="node18" class="node">
<title>github.com/docker/docker@v24.0.0+incompatible</title>
<g id="a_node18"><a xlink:href="?n=github.com%2Fgoogle%2Fgo-containerregistry&amp;n=github.com%2Fdocker%2Fdocker%40v24.0.0%2Bincompatible" xlink:title="github.com/docker/docker@v24.0.0+incompatible">
<ellipse fill="none" stroke="black" cx="606.15" cy="-1260" rx="199.78" ry="18"/>
<text text-anchor="middle" x="606.15" y="-1254.95" font-family="Times,serif" font-size="14.00">github.com/docker/docker@v24.0.0+incompatible</text>
</a>
</g>
</g>
<!-- github.com/google/go&#45;containerregistry&#45;&gt;github.com/docker/docker@v24.0.0+incompatible -->
<g id="edge17" class="edge">
<title>github.com/google/go&#45;containerregistry&#45;&gt;github.com/docker/docker@v24.0.0+incompatible</title>
<path fill="none" stroke="black" d="M174.32,-1089.33C204.12,-1124.26 274.66,-1199.85 352.64,-1233 370.53,-1240.61 389.75,-1246.39 409.31,-1250.76"/>
<polygon fill="black" stroke="black" points="408.54,-1254.18 419.04,-1252.8 409.97,-1247.33 408.54,-1254.18"/>
</g>
<!-- github.com/mitchellh/go&#45;homedir@v1.1.0 -->
<g id="node19" class="node">
<title>github.com/mitchellh/go&#45;homedir@v1.1.0</title>
<g id="a_node19"><a xlink:href="?n=github.com%2Fgoogle%2Fgo-containerregistry&amp;n=github.com%2Fmitchellh%2Fgo-homedir%40v1.1.0" xlink:title="github.com/mitchellh/go&#45;homedir@v1.1.0">
<ellipse fill="none" stroke="black" cx="606.15" cy="-1206" rx="169.58" ry="18"/>
<text text-anchor="middle" x="606.15" y="-1200.95" font-family="Times,serif" font-size="14.00">github.com/mitchellh/go&#45;homedir@v1.1.0</text>
</a>
</g>
</g>
<!-- github.com/google/go&#45;containerregistry&#45;&gt;github.com/mitchellh/go&#45;homedir@v1.1.0 -->
<g id="edge18" class="edge">
<title>github.com/google/go&#45;containerregistry&#45;&gt;github.com/mitchellh/go&#45;homedir@v1.1.0</title>
<path fill="none" stroke="black" d="M184.06,-1089.19C219.44,-1114.14 287.43,-1158.26 352.64,-1179 379.44,-1187.53 408.56,-1193.48 437.18,-1197.61"/>
<polygon fill="black" stroke="black" points="436.66,-1201.07 447.04,-1198.96 437.61,-1194.14 436.66,-1201.07"/>
</g>
<!-- github.com/pkg/errors@v0.9.1 -->
<g id="node20" class="node">
<title>github.com/pkg/errors@v0.9.1</title>
<g id="a_node20"><a xlink:href="?n=github.com%2Fgoogle%2Fgo-containerregistry&amp;n=github.com%2Fpkg%2Ferrors%40v0.9.1" xlink:title="github.com/pkg/errors@v0.9.1">
<ellipse fill="none" stroke="black" cx="606.15" cy="-1152" rx="126.08" ry="18"/>
<text text-anchor="middle" x="606.15" y="-1146.95" font-family="Times,serif" font-size="14.00">github.com/pkg/errors@v0.9.1</text>
</a>
</g>
</g>
<!-- github.com/google/go&#45;containerregistry&#45;&gt;github.com/pkg/errors@v0.9.1 -->
<g id="edge19" class="edge">
<title>github.com/google/go&#45;containerregistry&#45;&gt;github.com/pkg/errors@v0.9.1</title>
<path fill="none" stroke="black" d="M212.09,-1088.3C250.64,-1100.31 304.38,-1115.75 352.64,-1125 394.1,-1132.95 439.87,-1138.73 480.93,-1142.85"/>
<polygon fill="black" stroke="black" points="480.57,-1146.33 490.87,-1143.82 481.25,-1139.37 480.57,-1146.33"/>
</g>
<!-- golang.org/x/mod@v0.10.0 -->
<g id="node21" class="node">
<title>golang.org/x/mod@v0.10.0</title>
<g id="a_node21"><a xlink:href="?n=github.com%2Fgoogle%2Fgo-containerregistry&amp;n=golang.org%2Fx%2Fmod%40v0.10.0" xlink:title="golang.org/x/mod@v0.10.0">
<ellipse fill="none" stroke="black" cx="606.15" cy="-1098" rx="114.3" ry="18"/>
<text text-anchor="middle" x="606.15" y="-1092.95" font-family="Times,serif" font-size="14.00">golang.org/x/mod@v0.10.0</text>
</a>
</g>
</g>
<!-- github.com/google/go&#45;containerregistry&#45;&gt;golang.org/x/mod@v0.10.0 -->
<g id="edge20" class="edge">
<title>github.com/google/go&#45;containerregistry&#45;&gt;golang.org/x/mod@v0.10.0</title>
<path fill="none" stroke="black" d="M299.16,-1079.47C359.61,-1083.13 429.57,-1087.37 487.33,-1090.86"/>
<polygon fill="black" stroke="black" points="487.01,-1094.35 497.2,-1091.46 487.43,-1087.36 487.01,-1094.35"/>
</g>
<!-- gopkg.in/yaml.v3@v3.0.1 -->
<g id="node22" class="node">
<title>gopkg.in/yaml.v3@v3.0.1</title>
<g id="a_node22"><a xlink:href="?n=github.com%2Fgoogle%2Fgo-containerregistry&amp;n=gopkg.in%2Fyaml.v3%40v3.0.1" xlink:title="gopkg.in/yaml.v3@v3.0.1">
<ellipse fill="none" stroke="black" cx="606.15" cy="-1044" rx="109.19" ry="18"/>
<text text-anchor="middle" x="606.15" y="-1038.95" font-family="Times,serif" font-size="14.00">gopkg.in/yaml.v3@v3.0.1</text>
</a>
</g>
</g>
<!-- github.com/google/go&#45;containerregistry&#45;&gt;gopkg.in/yaml.v3@v3.0.1 -->
<g id="edge21" class="edge">
<title>github.com/google/go&#45;containerregistry&#45;&gt;gopkg.in/yaml.v3@v3.0.1</title>
<path fill="none" stroke="black" d="M299.16,-1062.53C361.18,-1058.78 433.2,-1054.41 491.79,-1050.87"/>
<polygon fill="black" stroke="black" points="491.67,-1054.38 501.44,-1050.28 491.24,-1047.39 491.67,-1054.38"/>
</g>
<!-- cloud.google.com/go/compute@v1.19.3 -->
<g id="node23" class="node">
<title>cloud.google.com/go/compute@v1.19.3</title>
<g id="a_node23"><a xlink:href="?n=github.com%2Fgoogle%2Fgo-containerregistry&amp;n=cloud.google.com%2Fgo%2Fcompute%40v1.19.3" xlink:title="cloud.google.com/go/compute@v1.19.3">
<ellipse fill="none" stroke="black" cx="606.15" cy="-990" rx="161.39" ry="18"/>
<text text-anchor="middle" x="606.15" y="-984.95" font-family="Times,serif" font-size="14.00">cloud.google.com/go/compute@v1.19.3</text>
</a>
</g>
</g>
<!-- github.com/google/go&#45;containerregistry&#45;&gt;cloud.google.com/go/compute@v1.19.3 -->
<g id="edge22" class="edge">
<title>github.com/google/go&#45;containerregistry&#45;&gt;cloud.google.com/go/compute@v1.19.3</title>
<path fill="none" stroke="black" d="M212.09,-1053.7C250.64,-1041.69 304.38,-1026.25 352.64,-1017 387.12,-1010.39 424.58,-1005.28 459.84,-1001.37"/>
<polygon fill="black" stroke="black" points="460.13,-1004.86 469.69,-1000.31 459.37,-997.9 460.13,-1004.86"/>
</g>
<!-- github.com/opencontainers/go&#45;digest@v1.0.0 -->
<g id="node24" class="node">
<title>github.com/opencontainers/go&#45;digest@v1.0.0</title>
<g id="a_node24"><a xlink:href="?n=github.com%2Fgoogle%2Fgo-containerregistry&amp;n=github.com%2Fopencontainers%2Fgo-digest%40v1.0.0" xlink:title="github.com/opencontainers/go&#45;digest@v1.0.0">
<ellipse fill="none" stroke="black" cx="606.15" cy="-936" rx="180.84" ry="18"/>
<text text-anchor="middle" x="606.15" y="-930.95" font-family="Times,serif" font-size="14.00">github.com/opencontainers/go&#45;digest@v1.0.0</text>
</a>
</g>
</g>
<!-- github.com/google/go&#45;containerregistry&#45;&gt;github.com/opencontainers/go&#45;digest@v1.0.0 -->
<g id="edge23" class="edge">
<title>github.com/google/go&#45;containerregistry&#45;&gt;github.com/opencontainers/go&#45;digest@v1.0.0</title>
<path fill="none" stroke="black" d="M184.06,-1052.81C219.44,-1027.86 287.43,-983.74 352.64,-963 377.36,-955.14 404.06,-949.46 430.52,-945.38"/>
<polygon fill="black" stroke="black" points="430.95,-948.86 440.34,-943.95 429.94,-941.93 430.95,-948.86"/>
</g>
<!-- github.com/opencontainers/image&#45;spec@v1.1.0&#45;rc3 -->
<g id="node25" class="node">
<title>github.com/opencontainers/image&#45;spec@v1.1.0&#45;rc3</title>
<g id="a_node25"><a xlink:href="?n=github.com%2Fgoogle%2Fgo-containerregistry&amp;n=github.com%2Fopencontainers%2Fimage-spec%40v1.1.0-rc3" xlink:title="github.com/opencontainers/image&#45;spec@v1.1.0&#45;rc3">
<ellipse fill="none" stroke="black" cx="606.15" cy="-882" rx="203.87" ry="18"/>
<text text-anchor="middle" x="606.15" y="-876.95" font-family="Times,serif" font-size="14.00">github.com/opencontainers/image&#45;spec@v1.1.0&#45;rc3</text>
</a>
</g>
</g>
<!-- github.com/google/go&#45;containerregistry&#45;&gt;github.com/opencontainers/image&#45;spec@v1.1.0&#45;rc3 -->
<g id="edge24" class="edge">
<title>github.com/google/go&#45;containerregistry&#45;&gt;github.com/opencontainers/image&#45;spec@v1.1.0&#45;rc3</title>
<path fill="none" stroke="black" d="M174.32,-1052.67C204.12,-1017.74 274.66,-942.15 352.64,-909 369.94,-901.65 388.48,-895.99 407.36,-891.68"/>
<polygon fill="black" stroke="black" points="407.99,-895.12 417.04,-889.6 406.53,-888.28 407.99,-895.12"/>
</g>
<!-- github.com/sirupsen/logrus@v1.9.1 -->
<g id="node26" class="node">
<title>github.com/sirupsen/logrus@v1.9.1</title>
<g id="a_node26"><a xlink:href="?n=github.com%2Fgoogle%2Fgo-containerregistry&amp;n=github.com%2Fsirupsen%2Flogrus%40v1.9.1" xlink:title="github.com/sirupsen/logrus@v1.9.1">
<ellipse fill="none" stroke="black" cx="606.15" cy="-828" rx="144.5" ry="18"/>
<text text-anchor="middle" x="606.15" y="-822.95" font-family="Times,serif" font-size="14.00">github.com/sirupsen/logrus@v1.9.1</text>
</a>
</g>
</g>
<!-- github.com/google/go&#45;containerregistry&#45;&gt;github.com/sirupsen/logrus@v1.9.1 -->
<g id="edge25" class="edge">
<title>github.com/google/go&#45;containerregistry&#45;&gt;github.com/sirupsen/logrus@v1.9.1</title>
<path fill="none" stroke="black" d="M169.24,-1052.73C193.77,-1009.58 261.95,-901.48 352.64,-855 382.91,-839.48 417.87,-830.87 451.94,-826.4"/>
<polygon fill="black" stroke="black" points="451.95,-829.93 461.46,-825.27 451.12,-822.98 451.95,-829.93"/>
</g>
<!-- github.com/Microsoft/go&#45;winio@v0.6.1 -->
<g id="node27" class="node">
<title>github.com/Microsoft/go&#45;winio@v0.6.1</title>
<g id="a_node27"><a xlink:href="?n=github.com%2Fgoogle%2Fgo-containerregistry&amp;n=github.com%2FMicrosoft%2Fgo-winio%40v0.6.1" xlink:title="github.com/Microsoft/go&#45;winio@v0.6.1">
<ellipse fill="none" stroke="black" cx="606.15" cy="-774" rx="160.88" ry="18"/>
<text text-anchor="middle" x="606.15" y="-768.95" font-family="Times,serif" font-size="14.00">github.com/Microsoft/go&#45;winio@v0.6.1</text>
</a>
</g>
</g>
<!-- github.com/google/go&#45;containerregistry&#45;&gt;github.com/Microsoft/go&#45;winio@v0.6.1 -->
<g id="edge26" class="edge">
<title>github.com/google/go&#45;containerregistry&#45;&gt;github.com/Microsoft/go&#45;winio@v0.6.1</title>
<path fill="none" stroke="black" d="M166.09,-1052.82C185.87,-1002.57 248.8,-861.56 352.64,-801 378.05,-786.18 407.37,-777.25 436.84,-772.15"/>
<polygon fill="black" stroke="black" points="437.3,-775.62 446.63,-770.61 436.21,-768.7 437.3,-775.62"/>
</g>
<!-- github.com/docker/docker&#45;credential&#45;helpers@v0.7.0 -->
<g id="node28" class="node">
<title>github.com/docker/docker&#45;credential&#45;helpers@v0.7.0</title>
<g id="a_node28"><a xlink:href="?n=github.com%2Fgoogle%2Fgo-containerregistry&amp;n=github.com%2Fdocker%2Fdocker-credential-helpers%40v0.7.0" xlink:title="github.com/docker/docker&#45;credential&#45;helpers@v0.7.0">
<ellipse fill="none" stroke="black" cx="606.15" cy="-720" rx="210.01" ry="18"/>
<text text-anchor="middle" x="606.15" y="-714.95" font-family="Times,serif" font-size="14.00">github.com/docker/docker&#45;credential&#45;helpers@v0.7.0</text>
</a>
</g>
</g>
<!-- github.com/google/go&#45;containerregistry&#45;&gt;github.com/docker/docker&#45;credential&#45;helpers@v0.7.0 -->
<g id="edge27" class="edge">
<title>github.com/google/go&#45;containerregistry&#45;&gt;github.com/docker/docker&#45;credential&#45;helpers@v0.7.0</title>
<path fill="none" stroke="black" d="M164.02,-1052.62C179.6,-995.76 235.43,-822.07 352.64,-747 364.77,-739.23 377.92,-733 391.62,-728.05"/>
<polygon fill="black" stroke="black" points="392.4,-731.49 400.77,-724.99 390.18,-724.85 392.4,-731.49"/>
</g>
<!-- github.com/russross/blackfriday/v2@v2.1.0 -->
<g id="node29" class="node">
<title>github.com/russross/blackfriday/v2@v2.1.0</title>
<g id="a_node29"><a xlink:href="?n=github.com%2Fgoogle%2Fgo-containerregistry&amp;n=github.com%2Frussross%2Fblackfriday%2Fv2%40v2.1.0" xlink:title="github.com/russross/blackfriday/v2@v2.1.0">
<ellipse fill="none" stroke="black" cx="606.15" cy="-666" rx="174.19" ry="18"/>
<text text-anchor="middle" x="606.15" y="-660.95" font-family="Times,serif" font-size="14.00">github.com/russross/blackfriday/v2@v2.1.0</text>
</a>
</g>
</g>
<!-- github.com/google/go&#45;containerregistry&#45;&gt;github.com/russross/blackfriday/v2@v2.1.0 -->
<g id="edge28" class="edge">
<title>github.com/google/go&#45;containerregistry&#45;&gt;github.com/russross/blackfriday/v2@v2.1.0</title>
<path fill="none" stroke="black" d="M162.39,-1052.8C174.01,-990.29 221.44,-783.2 352.64,-693 375.31,-677.41 401.93,-667.82 429.23,-662.23"/>
<polygon fill="black" stroke="black" points="429.86,-665.67 439.06,-660.41 428.59,-658.79 429.86,-665.67"/>
</g>
<!-- golang.org/x/tools@v0.9.1 -->
<g id="node30" class="node">
<title>golang.org/x/tools@v0.9.1</title>
<g id="a_node30"><a xlink:href="?n=github.com%2Fgoogle%2Fgo-containerregistry&amp;n=golang.org%2Fx%2Ftools%40v0.9.1" xlink:title="golang.org/x/tools@v0.9.1">
<ellipse fill="none" stroke="black" cx="606.15" cy="-612" rx="110.72" ry="18"/>
<text text-anchor="middle" x="606.15" y="-606.95" font-family="Times,serif" font-size="14.00">golang.org/x/tools@v0.9.1</text>
</a>
</g>
</g>
<!-- github.com/google/go&#45;containerregistry&#45;&gt;golang.org/x/tools@v0.9.1 -->
<g id="edge29" class="edge">
<title>github.com/google/go&#45;containerregistry&#45;&gt;golang.org/x/tools@v0.9.1</title>
<path fill="none" stroke="black" d="M161.2,-1052.7C169.25,-984.62 207.39,-744.52 352.64,-639 396.41,-607.2 456.25,-599.68 506.68,-600.48"/>
<polygon fill="black" stroke="black" points="506.35,-603.97 516.44,-600.75 506.54,-596.97 506.35,-603.97"/>
</g>
<!-- google.golang.org/appengine@v1.6.7 -->
<g id="node31" class="node">
<title>google.golang.org/appengine@v1.6.7</title>
<g id="a_node31"><a xlink:href="?n=github.com%2Fgoogle%2Fgo-containerregistry&amp;n=google.golang.org%2Fappengine%40v1.6.7" xlink:title="google.golang.org/appengine@v1.6.7">
<ellipse fill="none" stroke="black" cx="606.15" cy="-558" rx="151.15" ry="18"/>
<text text-anchor="middle" x="606.15" y="-552.95" font-family="Times,serif" font-size="14.00">google.golang.org/appengine@v1.6.7</text>
</a>
</g>
</g>
<!-- github.com/google/go&#45;containerregistry&#45;&gt;google.golang.org/appengine@v1.6.7 -->
<g id="edge30" class="edge">
<title>github.com/google/go&#45;containerregistry&#45;&gt;google.golang.org/appengine@v1.6.7</title>
<path fill="none" stroke="black" d="M160.24,-1052.54C164.99,-979.14 193.17,-706.07 352.64,-585 389.06,-557.35 437.41,-547.67 482.05,-545.94"/>
<polygon fill="black" stroke="black" points="481.89,-549.45 491.8,-545.71 481.72,-542.45 481.89,-549.45"/>
</g>
<!-- github.com/containerd/stargz&#45;snapshotter/estargz@v0.14.3 -->
<g id="node32" class="node">
<title>github.com/containerd/stargz&#45;snapshotter/estargz@v0.14.3</title>
<g id="a_node32"><a xlink:href="?n=github.com%2Fgoogle%2Fgo-containerregistry&amp;n=github.com%2Fcontainerd%2Fstargz-snapshotter%2Festargz%40v0.14.3" xlink:title="github.com/containerd/stargz&#45;snapshotter/estargz@v0.14.3">
<ellipse fill="none" stroke="black" cx="606.15" cy="-504" rx="229.97" ry="18"/>
<text text-anchor="middle" x="606.15" y="-498.95" font-family="Times,serif" font-size="14.00">github.com/containerd/stargz&#45;snapshotter/estargz@v0.14.3</text>
</a>
</g>
</g>
<!-- github.com/google/go&#45;containerregistry&#45;&gt;github.com/containerd/stargz&#45;snapshotter/estargz@v0.14.3 -->
<g id="edge31" class="edge">
<title>github.com/google/go&#45;containerregistry&#45;&gt;github.com/containerd/stargz&#45;snapshotter/estargz@v0.14.3</title>
<path fill="none" stroke="black" d="M159.44,-1052.72C161.04,-974.78 178.53,-668.02 352.64,-531 360.63,-524.71 369.23,-519.33 378.27,-514.76"/>
<polygon fill="black" stroke="black" points="379.69,-517.96 387.28,-510.57 376.74,-511.61 379.69,-517.96"/>
</g>
<!-- github.com/vbatts/tar&#45;split@v0.11.3 -->
<g id="node33" class="node">
<title>github.com/vbatts/tar&#45;split@v0.11.3</title>
<g id="a_node33"><a xlink:href="?n=github.com%2Fgoogle%2Fgo-containerregistry&amp;n=github.com%2Fvbatts%2Ftar-split%40v0.11.3" xlink:title="github.com/vbatts/tar&#45;split@v0.11.3">
<ellipse fill="none" stroke="black" cx="606.15" cy="-450" rx="146.04" ry="18"/>
<text text-anchor="middle" x="606.15" y="-444.95" font-family="Times,serif" font-size="14.00">github.com/vbatts/tar&#45;split@v0.11.3</text>
</a>
</g>
</g>
<!-- github.com/google/go&#45;containerregistry&#45;&gt;github.com/vbatts/tar&#45;split@v0.11.3 -->
<g id="edge32" class="edge">
<title>github.com/google/go&#45;containerregistry&#45;&gt;github.com/vbatts/tar&#45;split@v0.11.3</title>
<path fill="none" stroke="black" d="M158.78,-1052.65C157.46,-970.03 163.95,-630 352.64,-477 391.48,-445.51 445.46,-436.62 493.55,-436.49"/>
<polygon fill="black" stroke="black" points="493.44,-439.99 503.48,-436.6 493.52,-432.99 493.44,-439.99"/>
</g>
<!-- golang.org/x/oauth2@v0.8.0 -->
<g id="node34" class="node">
<title>golang.org/x/oauth2@v0.8.0</title>
<g id="a_node34"><a xlink:href="?n=github.com%2Fgoogle%2Fgo-containerregistry&amp;n=golang.org%2Fx%2Foauth2%40v0.8.0" xlink:title="golang.org/x/oauth2@v0.8.0">
<ellipse fill="none" stroke="black" cx="606.15" cy="-396" rx="117.89" ry="18"/>
<text text-anchor="middle" x="606.15" y="-390.95" font-family="Times,serif" font-size="14.00">golang.org/x/oauth2@v0.8.0</text>
</a>
</g>
</g>
<!-- github.com/google/go&#45;containerregistry&#45;&gt;golang.org/x/oauth2@v0.8.0 -->
<g id="edge33" class="edge">
<title>github.com/google/go&#45;containerregistry&#45;&gt;golang.org/x/oauth2@v0.8.0</title>
<path fill="none" stroke="black" d="M162.06,-1052.51C176.78,-955.72 249.73,-508.57 352.64,-423 395.83,-387.09 458.57,-380.23 510.71,-382.41"/>
<polygon fill="black" stroke="black" points="510.31,-385.89 520.49,-382.94 510.69,-378.9 510.31,-385.89"/>
</g>
<!-- golang.org/x/sync@v0.2.0 -->
<g id="node35" class="node">
<title>golang.org/x/sync@v0.2.0</title>
<g id="a_node35"><a xlink:href="?n=github.com%2Fgoogle%2Fgo-containerregistry&amp;n=golang.org%2Fx%2Fsync%40v0.2.0" xlink:title="golang.org/x/sync@v0.2.0">
<ellipse fill="none" stroke="black" cx="606.15" cy="-342" rx="109.7" ry="18"/>
<text text-anchor="middle" x="606.15" y="-336.95" font-family="Times,serif" font-size="14.00">golang.org/x/sync@v0.2.0</text>
</a>
</g>
</g>
<!-- github.com/google/go&#45;containerregistry&#45;&gt;golang.org/x/sync@v0.2.0 -->
<g id="edge34" class="edge">
<title>github.com/google/go&#45;containerregistry&#45;&gt;golang.org/x/sync@v0.2.0</title>
<path fill="none" stroke="black" d="M161.59,-1052.68C174.53,-951.57 242.22,-462.82 352.64,-369 397.02,-331.29 462.84,-325.31 516.15,-328.35"/>
<polygon fill="black" stroke="black" points="515.6,-331.82 525.82,-329.02 516.09,-324.84 515.6,-331.82"/>
</g>
<!-- gopkg.in/check.v1@v1.0.0&#45;20201130134442&#45;10cb98267c6c -->
<g id="node36" class="node">
<title>gopkg.in/check.v1@v1.0.0&#45;20201130134442&#45;10cb98267c6c</title>
<g id="a_node36"><a xlink:href="?n=github.com%2Fgoogle%2Fgo-containerregistry&amp;n=gopkg.in%2Fcheck.v1%40v1.0.0-20201130134442-10cb98267c6c" xlink:title="gopkg.in/check.v1@v1.0.0&#45;20201130134442&#45;10cb98267c6c">
<ellipse fill="none" stroke="black" cx="606.15" cy="-288" rx="236.11" ry="18"/>
<text text-anchor="middle" x="606.15" y="-282.95" font-family="Times,serif" font-size="14.00">gopkg.in/check.v1@v1.0.0&#45;20201130134442&#45;10cb98267c6c</text>
</a>
</g>
</g>
<!-- github.com/google/go&#45;containerregistry&#45;&gt;gopkg.in/check.v1@v1.0.0&#45;20201130134442&#45;10cb98267c6c -->
<g id="edge35" class="edge">
<title>github.com/google/go&#45;containerregistry&#45;&gt;gopkg.in/check.v1@v1.0.0&#45;20201130134442&#45;10cb98267c6c</title>
<path fill="none" stroke="black" d="M161.21,-1052.69C172.53,-947.1 234.72,-417.07 352.64,-315 359.44,-309.12 366.75,-304 374.46,-299.56"/>
<polygon fill="black" stroke="black" points="375.88,-302.77 383.09,-295.01 372.61,-296.58 375.88,-302.77"/>
</g>
<!-- gotest.tools/v3@v3.0.3 -->
<g id="node37" class="node">
<title>gotest.tools/v3@v3.0.3</title>
<g id="a_node37"><a xlink:href="?n=github.com%2Fgoogle%2Fgo-containerregistry&amp;n=gotest.tools%2Fv3%40v3.0.3" xlink:title="gotest.tools/v3@v3.0.3">
<ellipse fill="none" stroke="black" cx="606.15" cy="-234" rx="97.41" ry="18"/>
<text text-anchor="middle" x="606.15" y="-228.95" font-family="Times,serif" font-size="14.00">gotest.tools/v3@v3.0.3</text>
</a>
</g>
</g>
<!-- github.com/google/go&#45;containerregistry&#45;&gt;gotest.tools/v3@v3.0.3 -->
<g id="edge36" class="edge">
<title>github.com/google/go&#45;containerregistry&#45;&gt;gotest.tools/v3@v3.0.3</title>
<path fill="none" stroke="black" d="M160.87,-1052.85C170.62,-943.3 227.13,-371.42 352.64,-261 398.45,-220.69 468.54,-216.08 523.26,-220.34"/>
<polygon fill="black" stroke="black" points="522.91,-223.82 533.18,-221.24 523.54,-216.85 522.91,-223.82"/>
</g>
<!-- github.com/golang/protobuf@v1.5.3 -->
<g id="node38" class="node">
<title>github.com/golang/protobuf@v1.5.3</title>
<g id="a_node38"><a xlink:href="?n=github.com%2Fgoogle%2Fgo-containerregistry&amp;n=github.com%2Fgolang%2Fprotobuf%40v1.5.3" xlink:title="github.com/golang/protobuf@v1.5.3">
<ellipse fill="none" stroke="black" cx="606.15" cy="-180" rx="147.57" ry="18"/>
<text text-anchor="middle" x="606.15" y="-174.95" font-family="Times,serif" font-size="14.00">github.com/golang/protobuf@v1.5.3</text>
</a>
</g>
</g>
<!-- github.com/google/go&#45;containerregistry&#45;&gt;github.com/golang/protobuf@v1.5.3 -->
<g id="edge37" class="edge">
<title>github.com/google/go&#45;containerregistry&#45;&gt;github.com/golang/protobuf@v1.5.3</title>
<path fill="none" stroke="black" d="M160.59,-1052.77C168.92,-938.85 219.61,-325.72 352.64,-207 392.7,-171.25 451.8,-163.4 502.75,-165"/>
<polygon fill="black" stroke="black" points="502.5,-168.49 512.65,-165.45 502.81,-161.5 502.5,-168.49"/>
</g>
<!-- github.com/moby/term@v0.0.0&#45;20221205130635&#45;1aeaba878587 -->
<g id="node39" class="node">
<title>github.com/moby/term@v0.0.0&#45;20221205130635&#45;1aeaba878587</title>
<g id="a_node39"><a xlink:href="?n=github.com%2Fgoogle%2Fgo-containerregistry&amp;n=github.com%2Fmoby%2Fterm%40v0.0.0-20221205130635-1aeaba878587" xlink:title="github.com/moby/term@v0.0.0&#45;20221205130635&#45;1aeaba878587">
<ellipse fill="none" stroke="black" cx="606.15" cy="-126" rx="253.52" ry="18"/>
<text text-anchor="middle" x="606.15" y="-120.95" font-family="Times,serif" font-size="14.00">github.com/moby/term@v0.0.0&#45;20221205130635&#45;1aeaba878587</text>
</a>
</g>
</g>
<!-- github.com/google/go&#45;containerregistry&#45;&gt;github.com/moby/term@v0.0.0&#45;20221205130635&#45;1aeaba878587 -->
<g id="edge38" class="edge">
<title>github.com/google/go&#45;containerregistry&#45;&gt;github.com/moby/term@v0.0.0&#45;20221205130635&#45;1aeaba878587</title>
<path fill="none" stroke="black" d="M160.33,-1052.8C167.3,-934.91 212.02,-280.09 352.64,-153 358.01,-148.15 363.72,-143.81 369.72,-139.94"/>
<polygon fill="black" stroke="black" points="371.24,-143.1 378.07,-135 367.68,-137.08 371.24,-143.1"/>
</g>
<!-- github.com/morikuni/aec@v1.0.0 -->
<g id="node40" class="node">
<title>github.com/morikuni/aec@v1.0.0</title>
<g id="a_node40"><a xlink:href="?n=github.com%2Fgoogle%2Fgo-containerregistry&amp;n=github.com%2Fmorikuni%2Faec%40v1.0.0" xlink:title="github.com/morikuni/aec@v1.0.0">
<ellipse fill="none" stroke="black" cx="606.15" cy="-72" rx="137.34" ry="18"/>
<text text-anchor="middle" x="606.15" y="-66.95" font-family="Times,serif" font-size="14.00">github.com/morikuni/aec@v1.0.0</text>
</a>
</g>
</g>
<!-- github.com/google/go&#45;containerregistry&#45;&gt;github.com/morikuni/aec@v1.0.0 -->
<g id="edge39" class="edge">
<title>github.com/google/go&#45;containerregistry&#45;&gt;github.com/morikuni/aec@v1.0.0</title>
<path fill="none" stroke="black" d="M160.12,-1052.54C165.83,-929.98 204.52,-234.38 352.64,-99 393.95,-61.24 456.38,-54.29 508.82,-56.88"/>
<polygon fill="black" stroke="black" points="508.48,-60.36 518.68,-57.5 508.92,-53.38 508.48,-60.36"/>
</g>
<!-- go@1.18 -->
<g id="node41" class="node">
<title>go@1.18</title>
<g id="a_node41"><a xlink:href="?n=github.com%2Fgoogle%2Fgo-containerregistry&amp;n=go%401.18" xlink:title="go@1.18">
<ellipse fill="none" stroke="black" cx="606.15" cy="-18" rx="45.21" ry="18"/>
<text text-anchor="middle" x="606.15" y="-12.95" font-family="Times,serif" font-size="14.00">go@1.18</text>
</a>
</g>
</g>
<!-- github.com/google/go&#45;containerregistry&#45;&gt;go@1.18 -->
<g id="edge40" class="edge">
<title>github.com/google/go&#45;containerregistry&#45;&gt;go@1.18</title>
<path fill="none" stroke="black" d="M159.9,-1052.76C164.34,-926.96 196.82,-188.86 352.64,-45 406.89,5.09 498.22,1.2 554.9,-7.48"/>
<polygon fill="black" stroke="black" points="554.17,-10.91 564.61,-9.08 555.31,-4 554.17,-10.91"/>
</g>
</g>
</svg>
