<?xml version="1.0" encoding="UTF-8" standalone="no"?>
<!DOCTYPE svg PUBLIC "-//W3C//DTD SVG 1.1//EN"
 "http://www.w3.org/Graphics/SVG/1.1/DTD/svg11.dtd">
<!-- Generated by graphviz version 9.0.0 (20230911.1827)
 -->
<!-- Title: deps Pages: 1 -->
<svg width="1108pt" height="314pt"
 viewBox="0.00 0.00 1108.47 313.50" xmlns="http://www.w3.org/2000/svg" xmlns:xlink="http://www.w3.org/1999/xlink">
<g id="graph0" class="graph" transform="scale(1 1) rotate(0) translate(4 309.5)">
<title>deps</title>
<polygon fill="white" stroke="none" points="-4,4 -4,-309.5 1104.47,-309.5 1104.47,4 -4,4"/>
<!-- github.com/jonjohnsonjr/til/graphviz/src/jig -->
<g id="node1" class="node">
<title>github.com/jonjohnsonjr/til/graphviz/src/jig</title>
<ellipse fill="none" stroke="black" stroke-width="2" cx="220.38" cy="-72" rx="173.16" ry="18"/>
<text text-anchor="middle" x="220.38" y="-66.95" font-family="Times,serif" font-size="14.00">github.com/jonjohnsonjr/til/graphviz/src/jig</text>
</g>
<!-- github.com/skratchdot/open&#45;golang@v0.0.0&#45;20200116055534&#45;eef842397966 -->
<g id="node2" class="node">
<title>github.com/skratchdot/open&#45;golang@v0.0.0&#45;20200116055534&#45;eef842397966</title>
<g id="a_node2"><a xlink:href="?n=github.com%2Fjonjohnsonjr%2Ftil%2Fgraphviz%2Fsrc%2Fjig&amp;n=github.com%2Fskratchdot%2Fopen-golang%40v0.0.0-20200116055534-eef842397966" xlink:title="github.com/skratchdot/open&#45;golang@v0.0.0&#45;20200116055534&#45;eef842397966 (0)">
<ellipse fill="none" stroke="black" cx="788.61" cy="-126" rx="311.86" ry="18"/>
<text text-anchor="middle" x="788.61" y="-120.95" font-family="Times,serif" font-size="14.00">github.com/skratchdot/open&#45;golang@v0.0.0&#45;20200116055534&#45;eef842397966 (0)</text>
</a>
</g>
</g>
<!-- github.com/jonjohnsonjr/til/graphviz/src/jig&#45;&gt;github.com/skratchdot/open&#45;golang@v0.0.0&#45;20200116055534&#45;eef842397966 -->
<g id="edge1" class="edge">
<title>github.com/jonjohnsonjr/til/graphviz/src/jig&#45;&gt;github.com/skratchdot/open&#45;golang@v0.0.0&#45;20200116055534&#45;eef842397966</title>
<path fill="none" stroke="black" d="M341.82,-85.2C384.43,-89.75 432.71,-94.76 476.75,-99 515.36,-102.72 556.69,-106.47 596.2,-109.94"/>
<polygon fill="black" stroke="black" points="595.79,-113.42 606.05,-110.81 596.4,-106.45 595.79,-113.42"/>
</g>
<!-- go@1.22.0 -->
<g id="node3" class="node">
<title>go@1.22.0</title>
<g id="a_node3"><a xlink:href="?n=github.com%2Fjonjohnsonjr%2Ftil%2Fgraphviz%2Fsrc%2Fjig&amp;n=go%401.22.0" xlink:title="go@1.22.0 (1)">
<ellipse fill="none" stroke="black" cx="788.61" cy="-72" rx="65.68" ry="18"/>
<text text-anchor="middle" x="788.61" y="-66.95" font-family="Times,serif" font-size="14.00">go@1.22.0 (1)</text>
</a>
</g>
</g>
<!-- github.com/jonjohnsonjr/til/graphviz/src/jig&#45;&gt;go@1.22.0 -->
<g id="edge2" class="edge">
<title>github.com/jonjohnsonjr/til/graphviz/src/jig&#45;&gt;go@1.22.0</title>
<path fill="none" stroke="black" d="M393.96,-72C500.06,-72 630.73,-72 711.61,-72"/>
<polygon fill="black" stroke="black" points="711.17,-75.5 721.17,-72 711.17,-68.5 711.17,-75.5"/>
</g>
<!-- golang.org/x/exp@v0.0.0&#45;20240318143956&#45;a85f2c67cd81 -->
<g id="node4" class="node">
<title>golang.org/x/exp@v0.0.0&#45;20240318143956&#45;a85f2c67cd81</title>
<g id="a_node4"><a xlink:href="?n=github.com%2Fjonjohnsonjr%2Ftil%2Fgraphviz%2Fsrc%2Fjig&amp;n=golang.org%2Fx%2Fexp%40v0.0.0-20240318143956-a85f2c67cd81" xlink:title="golang.org/x/exp@v0.0.0&#45;20240318143956&#45;a85f2c67cd81 (3)">
<ellipse fill="none" stroke="black" cx="788.61" cy="-18" rx="242.26" ry="18"/>
<text text-anchor="middle" x="788.61" y="-12.95" font-family="Times,serif" font-size="14.00">golang.org/x/exp@v0.0.0&#45;20240318143956&#45;a85f2c67cd81 (3)</text>
</a>
</g>
</g>
<!-- github.com/jonjohnsonjr/til/graphviz/src/jig&#45;&gt;golang.org/x/exp@v0.0.0&#45;20240318143956&#45;a85f2c67cd81 -->
<g id="edge3" class="edge">
<title>github.com/jonjohnsonjr/til/graphviz/src/jig&#45;&gt;golang.org/x/exp@v0.0.0&#45;20240318143956&#45;a85f2c67cd81</title>
<path fill="none" stroke="black" d="M341.82,-58.8C384.43,-54.25 432.71,-49.24 476.75,-45 520.99,-40.74 568.81,-36.44 613.36,-32.56"/>
<polygon fill="black" stroke="black" points="613.44,-36.06 623.1,-31.71 612.84,-29.09 613.44,-36.06"/>
</g>
<!-- versions -->
<g id="node5" class="node">
<title>versions</title>
<polygon fill="none" stroke="black" points="0,-109 0,-305 440.75,-305 440.75,-109 0,-109"/>
<text text-anchor="middle" x="104.75" y="-287.7" font-family="Times,serif" font-size="14.00">pkg</text>
<polyline fill="none" stroke="black" points="0,-280.5 209.5,-280.5"/>
<text text-anchor="middle" x="104.75" y="-263.2" font-family="Times,serif" font-size="14.00">toolchain</text>
<polyline fill="none" stroke="black" points="0,-256 209.5,-256"/>
<text text-anchor="middle" x="104.75" y="-238.7" font-family="Times,serif" font-size="14.00">github.com/google/go&#45;cmp</text>
<polyline fill="none" stroke="black" points="0,-231.5 209.5,-231.5"/>
<text text-anchor="middle" x="104.75" y="-214.2" font-family="Times,serif" font-size="14.00">golang.org/x/mod</text>
<polyline fill="none" stroke="black" points="0,-207 209.5,-207"/>
<text text-anchor="middle" x="104.75" y="-189.7" font-family="Times,serif" font-size="14.00">golang.org/x/tools</text>
<polyline fill="none" stroke="black" points="0,-182.5 209.5,-182.5"/>
<text text-anchor="middle" x="104.75" y="-165.2" font-family="Times,serif" font-size="14.00">github.com/skratchdot/open&#45;golang</text>
<polyline fill="none" stroke="black" points="0,-158 209.5,-158"/>
<text text-anchor="middle" x="104.75" y="-140.7" font-family="Times,serif" font-size="14.00">go</text>
<polyline fill="none" stroke="black" points="0,-133.5 209.5,-133.5"/>
<text text-anchor="middle" x="104.75" y="-116.2" font-family="Times,serif" font-size="14.00">golang.org/x/exp</text>
<polyline fill="none" stroke="black" points="209.5,-109 209.5,-305"/>
<text text-anchor="middle" x="325.12" y="-287.7" font-family="Times,serif" font-size="14.00">ver</text>
<polyline fill="none" stroke="black" points="209.5,-280.5 440.75,-280.5"/>
<text text-anchor="middle" x="325.12" y="-263.2" font-family="Times,serif" font-size="14.00">go1.22.0</text>
<polyline fill="none" stroke="black" points="209.5,-256 440.75,-256"/>
<text text-anchor="middle" x="325.12" y="-238.7" font-family="Times,serif" font-size="14.00">v0.5.8</text>
<polyline fill="none" stroke="black" points="209.5,-231.5 440.75,-231.5"/>
<text text-anchor="middle" x="325.12" y="-214.2" font-family="Times,serif" font-size="14.00">v0.16.0</text>
<polyline fill="none" stroke="black" points="209.5,-207 440.75,-207"/>
<text text-anchor="middle" x="325.12" y="-189.7" font-family="Times,serif" font-size="14.00">v0.19.0</text>
<polyline fill="none" stroke="black" points="209.5,-182.5 440.75,-182.5"/>
<text text-anchor="middle" x="325.12" y="-165.2" font-family="Times,serif" font-size="14.00">v0.0.0&#45;20200116055534&#45;eef842397966</text>
<polyline fill="none" stroke="black" points="209.5,-158 440.75,-158"/>
<text text-anchor="middle" x="325.12" y="-140.7" font-family="Times,serif" font-size="14.00">1.22.0</text>
<polyline fill="none" stroke="black" points="209.5,-133.5 440.75,-133.5"/>
<text text-anchor="middle" x="325.12" y="-116.2" font-family="Times,serif" font-size="14.00">v0.0.0&#45;20240318143956&#45;a85f2c67cd81</text>
</g>
</g>
</svg>
