<?xml version="1.0" encoding="UTF-8" standalone="no"?><!DOCTYPE svg PUBLIC "-//W3C//DTD SVG 1.1//EN" "http://www.w3.org/Graphics/SVG/1.1/DTD/svg11.dtd"><!-- Generated by graphviz version 2.40.1 (20161225.0304)
 --><!-- Title: G Pages: 1 --><svg xmlns="http://www.w3.org/2000/svg" xmlns:xlink="http://www.w3.org/1999/xlink" width="74pt" height="183pt" viewBox="0.00 0.00 74.21 182.60">
<g id="graph0" class="graph" transform="scale(1 1) rotate(0) translate(4 178.6)">
<title>G</title>
<polygon fill="#ffffff" stroke="transparent" points="-4,4 -4,-178.6 70.2076,-178.6 70.2076,4 -4,4"/>
<!-- names -->
<g id="node1" class="node">
<title>names</title>
<polygon fill="none" stroke="#000000" points="0,-.5 0,-174.1 66.2076,-174.1 66.2076,-.5 0,-.5"/>
<text text-anchor="middle" x="15.7756" y="-145.1" font-family="Times,serif" font-size="14.00" fill="#000000">dir</text>
<polyline fill="none" stroke="#000000" points="31.5512,-124.5 31.5512,-174.1 "/>
<text text-anchor="middle" x="48.8794" y="-157.5" font-family="Times,serif" font-size="14.00" fill="#000000">file</text>
<polyline fill="none" stroke="#000000" points="31.5512,-149.3 66.2076,-149.3 "/>
<text text-anchor="middle" x="48.8794" y="-132.7" font-family="Times,serif" font-size="14.00" fill="#000000">file</text>
<polyline fill="none" stroke="#000000" points="0,-124.5 66.2076,-124.5 "/>
<text text-anchor="middle" x="15.7756" y="-107.9" font-family="Times,serif" font-size="14.00" fill="#000000">dir</text>
<polyline fill="none" stroke="#000000" points="31.5512,-99.7 31.5512,-124.5 "/>
<text text-anchor="middle" x="48.8794" y="-107.9" font-family="Times,serif" font-size="14.00" fill="#000000">file</text>
<polyline fill="none" stroke="#000000" points="0,-99.7 66.2076,-99.7 "/>
<text text-anchor="middle" x="15.7756" y="-58.3" font-family="Times,serif" font-size="14.00" fill="#000000">dir</text>
<polyline fill="none" stroke="#000000" points="31.5512,-25.3 31.5512,-99.7 "/>
<text text-anchor="middle" x="48.8794" y="-83.1" font-family="Times,serif" font-size="14.00" fill="#000000">file</text>
<polyline fill="none" stroke="#000000" points="31.5512,-74.9 66.2076,-74.9 "/>
<text text-anchor="middle" x="48.8794" y="-58.3" font-family="Times,serif" font-size="14.00" fill="#000000">file</text>
<polyline fill="none" stroke="#000000" points="31.5512,-50.1 66.2076,-50.1 "/>
<text text-anchor="middle" x="48.8794" y="-33.5" font-family="Times,serif" font-size="14.00" fill="#000000">file</text>
<polyline fill="none" stroke="#000000" points="0,-25.3 66.2076,-25.3 "/>
<text text-anchor="middle" x="33.1038" y="-8.7" font-family="Times,serif" font-size="14.00" fill="#000000">...</text>
</g>
</g>
</svg>