<?xml version="1.0" encoding="UTF-8" standalone="no"?><!DOCTYPE svg PUBLIC "-//W3C//DTD SVG 1.1//EN" "http://www.w3.org/Graphics/SVG/1.1/DTD/svg11.dtd"><!-- Generated by graphviz version 2.40.1 (20161225.0304)
 --><!-- Title: G Pages: 1 --><svg xmlns="http://www.w3.org/2000/svg" xmlns:xlink="http://www.w3.org/1999/xlink" width="109pt" height="108pt" viewBox="0.00 0.00 109.18 108.20">
<g id="graph0" class="graph" transform="scale(1 1) rotate(0) translate(4 104.2)">
<title>G</title>
<polygon fill="#ffffff" stroke="transparent" points="-4,4 -4,-104.2 105.1754,-104.2 105.1754,4 -4,4"/>
<!-- tar -->
<g id="node1" class="node">
<title>tar</title>
<polygon fill="none" stroke="#000000" points="0,-.5 0,-99.7 101.1754,-99.7 101.1754,-.5 0,-.5"/>
<text text-anchor="middle" x="26.6522" y="-83.1" font-family="Times,serif" font-size="14.00" fill="#000000">header</text>
<polyline fill="none" stroke="#000000" points="53.3044,-74.9 53.3044,-99.7 "/>
<text text-anchor="middle" x="77.2399" y="-83.1" font-family="Times,serif" font-size="14.00" fill="#000000">offset</text>
<polyline fill="none" stroke="#000000" points="0,-74.9 101.1754,-74.9 "/>
<text text-anchor="middle" x="26.6522" y="-58.3" font-family="Times,serif" font-size="14.00" fill="#000000">header</text>
<polyline fill="none" stroke="#000000" points="53.3044,-50.1 53.3044,-74.9 "/>
<text text-anchor="middle" x="77.2399" y="-58.3" font-family="Times,serif" font-size="14.00" fill="#000000">offset</text>
<polyline fill="none" stroke="#000000" points="0,-50.1 101.1754,-50.1 "/>
<text text-anchor="middle" x="26.6522" y="-33.5" font-family="Times,serif" font-size="14.00" fill="#000000">header</text>
<polyline fill="none" stroke="#000000" points="53.3044,-25.3 53.3044,-50.1 "/>
<text text-anchor="middle" x="77.2399" y="-33.5" font-family="Times,serif" font-size="14.00" fill="#000000">offset</text>
<polyline fill="none" stroke="#000000" points="0,-25.3 101.1754,-25.3 "/>
<text text-anchor="middle" x="50.5877" y="-8.7" font-family="Times,serif" font-size="14.00" fill="#000000">...</text>
</g>
</g>
</svg>