<?xml version="1.0" encoding="UTF-8" standalone="no"?><!DOCTYPE svg PUBLIC "-//W3C//DTD SVG 1.1//EN" "http://www.w3.org/Graphics/SVG/1.1/DTD/svg11.dtd"><!-- Generated by graphviz version 2.40.1 (20161225.0304)
 --><!-- Title: G Pages: 1 --><svg xmlns="http://www.w3.org/2000/svg" xmlns:xlink="http://www.w3.org/1999/xlink" width="101pt" height="108pt" viewBox="0.00 0.00 101.42 108.20">
<g id="graph0" class="graph" transform="scale(1 1) rotate(0) translate(4 104.2)">
<title>G</title>
<polygon fill="#ffffff" stroke="transparent" points="-4,4 -4,-104.2 97.425,-104.2 97.425,4 -4,4"/>
<!-- names -->
<g id="node1" class="node">
<title>names</title>
<polygon fill="none" stroke="#000000" points="0,-.5 0,-99.7 93.425,-99.7 93.425,-.5 0,-.5"/>
<text text-anchor="middle" x="23.1599" y="-83.1" font-family="Times,serif" font-size="14.00" fill="#000000">name</text>
<polyline fill="none" stroke="#000000" points="46.3198,-74.9 46.3198,-99.7 "/>
<text text-anchor="middle" x="69.8724" y="-83.1" font-family="Times,serif" font-size="14.00" fill="#000000">index</text>
<polyline fill="none" stroke="#000000" points="0,-74.9 93.425,-74.9 "/>
<text text-anchor="middle" x="23.1599" y="-58.3" font-family="Times,serif" font-size="14.00" fill="#000000">name</text>
<polyline fill="none" stroke="#000000" points="46.3198,-50.1 46.3198,-74.9 "/>
<text text-anchor="middle" x="69.8724" y="-58.3" font-family="Times,serif" font-size="14.00" fill="#000000">index</text>
<polyline fill="none" stroke="#000000" points="0,-50.1 93.425,-50.1 "/>
<text text-anchor="middle" x="23.1599" y="-33.5" font-family="Times,serif" font-size="14.00" fill="#000000">name</text>
<polyline fill="none" stroke="#000000" points="46.3198,-25.3 46.3198,-50.1 "/>
<text text-anchor="middle" x="69.8724" y="-33.5" font-family="Times,serif" font-size="14.00" fill="#000000">index</text>
<polyline fill="none" stroke="#000000" points="0,-25.3 93.425,-25.3 "/>
<text text-anchor="middle" x="46.7125" y="-8.7" font-family="Times,serif" font-size="14.00" fill="#000000">...</text>
</g>
</g>
</svg>